<svg preserveAspectRatio="none" width="100%" height="100%" overflow="visible" style="display: block;" viewBox="0 0 356.521 503.322" fill="none" xmlns="http://www.w3.org/2000/svg">
<path id="Grid" d="M10.9043 3.41602H23.4883V0H24.3271V3.41602H36.9111V0H37.75V3.41602H50.3311V0H51.1699V3.41602H63.7539V0H64.5928V3.41602H77.1768V0H78.0156V3.41602H90.5967V0H91.4355V3.41602H104.02V0H104.858V3.41602H117.442V0H118.281V3.41602H130.862V0H131.701V3.41602H144.285V0H145.124V3.41602H157.708V0H158.547V3.41602H171.13V0H171.969V3.41602H184.551V0H185.39V3.41602H197.974V0H198.812V3.41602H211.396V0H212.234V3.41602H224.816V0H225.655V3.41602H238.239V0H239.078V3.41602H251.661V0H252.5V3.41602H265.084V0H265.923V3.41602H278.504V0H279.343V3.41602H291.927V0H292.766V3.41602H305.35V0H306.188V3.41602H318.77V0H319.608V3.41602H332.192V0H333.031V3.41602H345.615V0H346.454V3.41602H356.521V4.25488H346.454V16.8379H356.521V17.6768H346.454V30.2598H356.521V31.0986H346.454V43.6816H356.521V44.5205H346.454V57.1035H356.521V57.9424H346.454V70.5254H356.521V71.3643H346.454V83.9473H356.521V84.7861H346.454V97.3701H356.521V98.209H346.454V110.792H356.521V111.631H346.454V124.214H356.521V125.053H346.454V137.636H356.521V138.475H346.454V151.058H356.521V151.896H346.454V164.479H356.521V165.318H346.454V177.901H356.521V178.74H346.454V191.323H356.521V192.162H346.454V204.745H356.521V205.584H346.454V218.167H356.521V219.006H346.454V231.589H356.521V232.428H346.454V245.011H356.521V245.85H346.454V258.433H356.521V259.271H346.454V271.854H356.521V272.693H346.454V285.276H356.521V286.115H346.454V298.699H356.521V299.538H346.454V312.12H356.521V312.959H346.454V325.543H356.521V326.382H346.454V338.965H356.521V339.804H346.454V352.387H356.521V353.226H346.454V365.809H356.521V366.647H346.454V379.23H356.521V380.069H346.454V392.652H356.521V393.491H346.454V406.074H356.521V406.913H346.454V419.496H356.521V420.335H346.454V432.918H356.521V433.757H346.454V446.34H356.521V447.179H346.454V459.762H356.521V460.601H346.454V473.184H356.521V474.022H346.454V486.605H356.521V487.444H346.454V500.028H356.521V500.867H346.454V503.322H345.615V500.867H333.031V503.322H332.192V500.867H319.608V503.322H318.77V500.867H306.188V503.322H305.35V500.867H292.766V503.322H291.927V500.867H279.343V503.322H278.504V500.867H265.923V503.322H265.084V500.867H252.5V503.322H251.661V500.867H239.078V503.322H238.239V500.867H225.655V503.322H224.816V500.867H212.234V503.322H211.396V500.867H198.812V503.322H197.974V500.867H185.39V503.322H184.551V500.867H171.969V503.322H171.13V500.867H158.547V503.322H157.708V500.867H145.124V503.322H144.285V500.867H131.701V503.322H130.862V500.867H118.281V503.322H117.442V500.867H104.858V503.322H104.02V500.867H91.4355V503.322H90.5967V500.867H78.0156V503.322H77.1768V500.867H64.5928V503.322H63.7539V500.867H51.1699V503.322H50.3311V500.867H37.75V503.322H36.9111V500.867H24.3271V503.322H23.4883V500.867H10.9043V503.322H10.0654V500.867H0V500.028H10.0654V487.444H0V486.605H10.0654V474.022H0V473.184H10.0654V460.601H0V459.762H10.0654V447.179H0V446.34H10.0654V433.757H0V432.918H10.0654V420.335H0V419.496H10.0654V406.913H0V406.074H10.0654V393.491H0V392.652H10.0654V380.069H0V379.23H10.0654V366.647H0V365.809H10.0654V353.226H0V352.387H10.0654V339.804H0V338.965H10.0654V326.382H0V325.543H10.0654V312.959H0V312.12H10.0654V299.538H0V298.699H10.0654V286.115H0V285.276H10.0654V272.693H0V271.854H10.0654V259.271H0V258.433H10.0654V245.85H0V245.011H10.0654V232.428H0V231.589H10.0654V219.006H0V218.167H10.0654V205.584H0V204.745H10.0654V192.162H0V191.323H10.0654V178.74H0V177.901H10.0654V165.318H0V164.479H10.0654V151.896H0V151.058H10.0654V138.475H0V137.636H10.0654V125.053H0V124.214H10.0654V111.631H0V110.792H10.0654V98.209H0V97.3701H10.0654V84.7861H0V83.9473H10.0654V71.3643H0V70.5254H10.0654V57.9424H0V57.1035H10.0654V44.5205H0V43.6816H10.0654V31.0986H0V30.2598H10.0654V17.6768H0V16.8379H10.0654V4.25488H0V3.41602H10.0654V0H10.9043V3.41602ZM10.9043 487.444V500.028H23.4883V487.444H10.9043ZM24.3271 487.444V500.028H36.9111V487.444H24.3271ZM37.75 487.444V500.028H50.3311V487.444H37.75ZM51.1699 487.444V500.028H63.7539V487.444H51.1699ZM64.5928 487.444V500.028H77.1768V487.444H64.5928ZM78.0156 487.444V500.028H90.5967V487.444H78.0156ZM91.4355 487.444V500.028H104.02V487.444H91.4355ZM104.858 487.444V500.028H117.442V487.444H104.858ZM118.281 487.444V500.028H130.862V487.444H118.281ZM131.701 487.444V500.028H144.285V487.444H131.701ZM145.124 487.444V500.028H157.708V487.444H145.124ZM158.547 487.444V500.028H171.13V487.444H158.547ZM171.969 487.444V500.028H184.551V487.444H171.969ZM185.39 487.444V500.028H197.974V487.444H185.39ZM198.812 487.444V500.028H211.396V487.444H198.812ZM212.234 487.444V500.028H224.816V487.444H212.234ZM225.655 487.444V500.028H238.239V487.444H225.655ZM239.078 487.444V500.028H251.661V487.444H239.078ZM252.5 487.444V500.028H265.084V487.444H252.5ZM265.923 487.444V500.028H278.504V487.444H265.923ZM279.343 487.444V500.028H291.927V487.444H279.343ZM292.766 487.444V500.028H305.35V487.444H292.766ZM306.188 487.444V500.028H318.77V487.444H306.188ZM319.608 487.444V500.028H332.192V487.444H319.608ZM333.031 487.444V500.028H345.615V487.444H333.031ZM10.9043 474.022V486.605H23.4883V474.022H10.9043ZM24.3271 474.022V486.605H36.9111V474.022H24.3271ZM37.75 474.022V486.605H50.3311V474.022H37.75ZM51.1699 474.022V486.605H63.7539V474.022H51.1699ZM64.5928 474.022V486.605H77.1768V474.022H64.5928ZM78.0156 474.022V486.605H90.5967V474.022H78.0156ZM91.4355 474.022V486.605H104.02V474.022H91.4355ZM104.858 474.022V486.605H117.442V474.022H104.858ZM118.281 474.022V486.605H130.862V474.022H118.281ZM131.701 474.022V486.605H144.285V474.022H131.701ZM145.124 474.022V486.605H157.708V474.022H145.124ZM158.547 474.022V486.605H171.13V474.022H158.547ZM171.969 474.022V486.605H184.551V474.022H171.969ZM185.39 474.022V486.605H197.974V474.022H185.39ZM198.812 474.022V486.605H211.396V474.022H198.812ZM212.234 474.022V486.605H224.816V474.022H212.234ZM225.655 474.022V486.605H238.239V474.022H225.655ZM239.078 474.022V486.605H251.661V474.022H239.078ZM252.5 474.022V486.605H265.084V474.022H252.5ZM265.923 474.022V486.605H278.504V474.022H265.923ZM279.343 474.022V486.605H291.927V474.022H279.343ZM292.766 474.022V486.605H305.35V474.022H292.766ZM306.188 474.022V486.605H318.77V474.022H306.188ZM319.608 474.022V486.605H332.192V474.022H319.608ZM333.031 474.022V486.605H345.615V474.022H333.031ZM10.9043 460.601V473.184H23.4883V460.601H10.9043ZM24.3271 460.601V473.184H36.9111V460.601H24.3271ZM37.75 460.601V473.184H50.3311V460.601H37.75ZM51.1699 460.601V473.184H63.7539V460.601H51.1699ZM64.5928 460.601V473.184H77.1768V460.601H64.5928ZM78.0156 460.601V473.184H90.5967V460.601H78.0156ZM91.4355 460.601V473.184H104.02V460.601H91.4355ZM104.858 460.601V473.184H117.442V460.601H104.858ZM118.281 460.601V473.184H130.862V460.601H118.281ZM131.701 460.601V473.184H144.285V460.601H131.701ZM145.124 460.601V473.184H157.708V460.601H145.124ZM158.547 460.601V473.184H171.13V460.601H158.547ZM171.969 460.601V473.184H184.551V460.601H171.969ZM185.39 460.601V473.184H197.974V460.601H185.39ZM198.812 460.601V473.184H211.396V460.601H198.812ZM212.234 460.601V473.184H224.816V460.601H212.234ZM225.655 460.601V473.184H238.239V460.601H225.655ZM239.078 460.601V473.184H251.661V460.601H239.078ZM252.5 460.601V473.184H265.084V460.601H252.5ZM265.923 460.601V473.184H278.504V460.601H265.923ZM279.343 460.601V473.184H291.927V460.601H279.343ZM292.766 460.601V473.184H305.35V460.601H292.766ZM306.188 460.601V473.184H318.77V460.601H306.188ZM319.608 460.601V473.184H332.192V460.601H319.608ZM333.031 460.601V473.184H345.615V460.601H333.031ZM10.9043 447.179V459.762H23.4883V447.179H10.9043ZM24.3271 447.179V459.762H36.9111V447.179H24.3271ZM37.75 447.179V459.762H50.3311V447.179H37.75ZM51.1699 447.179V459.762H63.7539V447.179H51.1699ZM64.5928 447.179V459.762H77.1768V447.179H64.5928ZM78.0156 447.179V459.762H90.5967V447.179H78.0156ZM91.4355 447.179V459.762H104.02V447.179H91.4355ZM104.858 447.179V459.762H117.442V447.179H104.858ZM118.281 447.179V459.762H130.862V447.179H118.281ZM131.701 447.179V459.762H144.285V447.179H131.701ZM145.124 447.179V459.762H157.708V447.179H145.124ZM158.547 447.179V459.762H171.13V447.179H158.547ZM171.969 447.179V459.762H184.551V447.179H171.969ZM185.39 447.179V459.762H197.974V447.179H185.39ZM198.812 447.179V459.762H211.396V447.179H198.812ZM212.234 447.179V459.762H224.816V447.179H212.234ZM225.655 447.179V459.762H238.239V447.179H225.655ZM239.078 447.179V459.762H251.661V447.179H239.078ZM252.5 447.179V459.762H265.084V447.179H252.5ZM265.923 447.179V459.762H278.504V447.179H265.923ZM279.343 447.179V459.762H291.927V447.179H279.343ZM292.766 447.179V459.762H305.35V447.179H292.766ZM306.188 447.179V459.762H318.77V447.179H306.188ZM319.608 447.179V459.762H332.192V447.179H319.608ZM333.031 447.179V459.762H345.615V447.179H333.031ZM10.9043 433.757V446.34H23.4883V433.757H10.9043ZM24.3271 433.757V446.34H36.9111V433.757H24.3271ZM37.75 433.757V446.34H50.3311V433.757H37.75ZM51.1699 433.757V446.34H63.7539V433.757H51.1699ZM64.5928 433.757V446.34H77.1768V433.757H64.5928ZM78.0156 433.757V446.34H90.5967V433.757H78.0156ZM91.4355 433.757V446.34H104.02V433.757H91.4355ZM104.858 433.757V446.34H117.442V433.757H104.858ZM118.281 433.757V446.34H130.862V433.757H118.281ZM131.701 433.757V446.34H144.285V433.757H131.701ZM145.124 433.757V446.34H157.708V433.757H145.124ZM158.547 433.757V446.34H171.13V433.757H158.547ZM171.969 433.757V446.34H184.551V433.757H171.969ZM185.39 433.757V446.34H197.974V433.757H185.39ZM198.812 433.757V446.34H211.396V433.757H198.812ZM212.234 433.757V446.34H224.816V433.757H212.234ZM225.655 433.757V446.34H238.239V433.757H225.655ZM239.078 433.757V446.34H251.661V433.757H239.078ZM252.5 433.757V446.34H265.084V433.757H252.5ZM265.923 433.757V446.34H278.504V433.757H265.923ZM279.343 433.757V446.34H291.927V433.757H279.343ZM292.766 433.757V446.34H305.35V433.757H292.766ZM306.188 433.757V446.34H318.77V433.757H306.188ZM319.608 433.757V446.34H332.192V433.757H319.608ZM333.031 433.757V446.34H345.615V433.757H333.031ZM10.9043 420.335V432.918H23.4883V420.335H10.9043ZM24.3271 420.335V432.918H36.9111V420.335H24.3271ZM37.75 420.335V432.918H50.3311V420.335H37.75ZM51.1699 420.335V432.918H63.7539V420.335H51.1699ZM64.5928 420.335V432.918H77.1768V420.335H64.5928ZM78.0156 420.335V432.918H90.5967V420.335H78.0156ZM91.4355 420.335V432.918H104.02V420.335H91.4355ZM104.858 420.335V432.918H117.442V420.335H104.858ZM118.281 420.335V432.918H130.862V420.335H118.281ZM131.701 420.335V432.918H144.285V420.335H131.701ZM145.124 420.335V432.918H157.708V420.335H145.124ZM158.547 420.335V432.918H171.13V420.335H158.547ZM171.969 420.335V432.918H184.551V420.335H171.969ZM185.39 420.335V432.918H197.974V420.335H185.39ZM198.812 420.335V432.918H211.396V420.335H198.812ZM212.234 420.335V432.918H224.816V420.335H212.234ZM225.655 420.335V432.918H238.239V420.335H225.655ZM239.078 420.335V432.918H251.661V420.335H239.078ZM252.5 420.335V432.918H265.084V420.335H252.5ZM265.923 420.335V432.918H278.504V420.335H265.923ZM279.343 420.335V432.918H291.927V420.335H279.343ZM292.766 420.335V432.918H305.35V420.335H292.766ZM306.188 420.335V432.918H318.77V420.335H306.188ZM319.608 420.335V432.918H332.192V420.335H319.608ZM333.031 420.335V432.918H345.615V420.335H333.031ZM10.9043 406.913V419.496H23.4883V406.913H10.9043ZM24.3271 406.913V419.496H36.9111V406.913H24.3271ZM37.75 406.913V419.496H50.3311V406.913H37.75ZM51.1699 406.913V419.496H63.7539V406.913H51.1699ZM64.5928 406.913V419.496H77.1768V406.913H64.5928ZM78.0156 406.913V419.496H90.5967V406.913H78.0156ZM91.4355 406.913V419.496H104.02V406.913H91.4355ZM104.858 406.913V419.496H117.442V406.913H104.858ZM118.281 406.913V419.496H130.862V406.913H118.281ZM131.701 406.913V419.496H144.285V406.913H131.701ZM145.124 406.913V419.496H157.708V406.913H145.124ZM158.547 406.913V419.496H171.13V406.913H158.547ZM171.969 406.913V419.496H184.551V406.913H171.969ZM185.39 406.913V419.496H197.974V406.913H185.39ZM198.812 406.913V419.496H211.396V406.913H198.812ZM212.234 406.913V419.496H224.816V406.913H212.234ZM225.655 406.913V419.496H238.239V406.913H225.655ZM239.078 406.913V419.496H251.661V406.913H239.078ZM252.5 406.913V419.496H265.084V406.913H252.5ZM265.923 406.913V419.496H278.504V406.913H265.923ZM279.343 406.913V419.496H291.927V406.913H279.343ZM292.766 406.913V419.496H305.35V406.913H292.766ZM306.188 406.913V419.496H318.77V406.913H306.188ZM319.608 406.913V419.496H332.192V406.913H319.608ZM333.031 406.913V419.496H345.615V406.913H333.031ZM10.9043 393.491V406.074H23.4883V393.491H10.9043ZM24.3271 393.491V406.074H36.9111V393.491H24.3271ZM37.75 393.491V406.074H50.3311V393.491H37.75ZM51.1699 393.491V406.074H63.7539V393.491H51.1699ZM64.5928 393.491V406.074H77.1768V393.491H64.5928ZM78.0156 393.491V406.074H90.5967V393.491H78.0156ZM91.4355 393.491V406.074H104.02V393.491H91.4355ZM104.858 393.491V406.074H117.442V393.491H104.858ZM118.281 393.491V406.074H130.862V393.491H118.281ZM131.701 393.491V406.074H144.285V393.491H131.701ZM145.124 393.491V406.074H157.708V393.491H145.124ZM158.547 393.491V406.074H171.13V393.491H158.547ZM171.969 393.491V406.074H184.551V393.491H171.969ZM185.39 393.491V406.074H197.974V393.491H185.39ZM198.812 393.491V406.074H211.396V393.491H198.812ZM212.234 393.491V406.074H224.816V393.491H212.234ZM225.655 393.491V406.074H238.239V393.491H225.655ZM239.078 393.491V406.074H251.661V393.491H239.078ZM252.5 393.491V406.074H265.084V393.491H252.5ZM265.923 393.491V406.074H278.504V393.491H265.923ZM279.343 393.491V406.074H291.927V393.491H279.343ZM292.766 393.491V406.074H305.35V393.491H292.766ZM306.188 393.491V406.074H318.77V393.491H306.188ZM319.608 393.491V406.074H332.192V393.491H319.608ZM333.031 393.491V406.074H345.615V393.491H333.031ZM10.9043 380.069V392.652H23.4883V380.069H10.9043ZM24.3271 380.069V392.652H36.9111V380.069H24.3271ZM37.75 380.069V392.652H50.3311V380.069H37.75ZM51.1699 380.069V392.652H63.7539V380.069H51.1699ZM64.5928 380.069V392.652H77.1768V380.069H64.5928ZM78.0156 380.069V392.652H90.5967V380.069H78.0156ZM91.4355 380.069V392.652H104.02V380.069H91.4355ZM104.858 380.069V392.652H117.442V380.069H104.858ZM118.281 380.069V392.652H130.862V380.069H118.281ZM131.701 380.069V392.652H144.285V380.069H131.701ZM145.124 380.069V392.652H157.708V380.069H145.124ZM158.547 380.069V392.652H171.13V380.069H158.547ZM171.969 380.069V392.652H184.551V380.069H171.969ZM185.39 380.069V392.652H197.974V380.069H185.39ZM198.812 380.069V392.652H211.396V380.069H198.812ZM212.234 380.069V392.652H224.816V380.069H212.234ZM225.655 380.069V392.652H238.239V380.069H225.655ZM239.078 380.069V392.652H251.661V380.069H239.078ZM252.5 380.069V392.652H265.084V380.069H252.5ZM265.923 380.069V392.652H278.504V380.069H265.923ZM279.343 380.069V392.652H291.927V380.069H279.343ZM292.766 380.069V392.652H305.35V380.069H292.766ZM306.188 380.069V392.652H318.77V380.069H306.188ZM319.608 380.069V392.652H332.192V380.069H319.608ZM333.031 380.069V392.652H345.615V380.069H333.031ZM10.9043 366.647V379.23H23.4883V366.647H10.9043ZM24.3271 366.647V379.23H36.9111V366.647H24.3271ZM37.75 366.647V379.23H50.3311V366.647H37.75ZM51.1699 366.647V379.23H63.7539V366.647H51.1699ZM64.5928 366.647V379.23H77.1768V366.647H64.5928ZM78.0156 366.647V379.23H90.5967V366.647H78.0156ZM91.4355 366.647V379.23H104.02V366.647H91.4355ZM104.858 366.647V379.23H117.442V366.647H104.858ZM118.281 366.647V379.23H130.862V366.647H118.281ZM131.701 366.647V379.23H144.285V366.647H131.701ZM145.124 366.647V379.23H157.708V366.647H145.124ZM158.547 366.647V379.23H171.13V366.647H158.547ZM171.969 366.647V379.23H184.551V366.647H171.969ZM185.39 366.647V379.23H197.974V366.647H185.39ZM198.812 366.647V379.23H211.396V366.647H198.812ZM212.234 366.647V379.23H224.816V366.647H212.234ZM225.655 366.647V379.23H238.239V366.647H225.655ZM239.078 366.647V379.23H251.661V366.647H239.078ZM252.5 366.647V379.23H265.084V366.647H252.5ZM265.923 366.647V379.23H278.504V366.647H265.923ZM279.343 366.647V379.23H291.927V366.647H279.343ZM292.766 366.647V379.23H305.35V366.647H292.766ZM306.188 366.647V379.23H318.77V366.647H306.188ZM319.608 366.647V379.23H332.192V366.647H319.608ZM333.031 366.647V379.23H345.615V366.647H333.031ZM10.9043 353.226V365.809H23.4883V353.226H10.9043ZM24.3271 353.226V365.809H36.9111V353.226H24.3271ZM37.75 353.226V365.809H50.3311V353.226H37.75ZM51.1699 353.226V365.809H63.7539V353.226H51.1699ZM64.5928 353.226V365.809H77.1768V353.226H64.5928ZM78.0156 353.226V365.809H90.5967V353.226H78.0156ZM91.4355 353.226V365.809H104.02V353.226H91.4355ZM104.858 353.226V365.809H117.442V353.226H104.858ZM118.281 353.226V365.809H130.862V353.226H118.281ZM131.701 353.226V365.809H144.285V353.226H131.701ZM145.124 353.226V365.809H157.708V353.226H145.124ZM158.547 353.226V365.809H171.13V353.226H158.547ZM171.969 353.226V365.809H184.551V353.226H171.969ZM185.39 353.226V365.809H197.974V353.226H185.39ZM198.812 353.226V365.809H211.396V353.226H198.812ZM212.234 353.226V365.809H224.816V353.226H212.234ZM225.655 353.226V365.809H238.239V353.226H225.655ZM239.078 353.226V365.809H251.661V353.226H239.078ZM252.5 353.226V365.809H265.084V353.226H252.5ZM265.923 353.226V365.809H278.504V353.226H265.923ZM279.343 353.226V365.809H291.927V353.226H279.343ZM292.766 353.226V365.809H305.35V353.226H292.766ZM306.188 353.226V365.809H318.77V353.226H306.188ZM319.608 353.226V365.809H332.192V353.226H319.608ZM333.031 353.226V365.809H345.615V353.226H333.031ZM10.9043 339.804V352.387H23.4883V339.804H10.9043ZM24.3271 339.804V352.387H36.9111V339.804H24.3271ZM37.75 339.804V352.387H50.3311V339.804H37.75ZM51.1699 339.804V352.387H63.7539V339.804H51.1699ZM64.5928 339.804V352.387H77.1768V339.804H64.5928ZM78.0156 339.804V352.387H90.5967V339.804H78.0156ZM91.4355 339.804V352.387H104.02V339.804H91.4355ZM104.858 339.804V352.387H117.442V339.804H104.858ZM118.281 339.804V352.387H130.862V339.804H118.281ZM131.701 339.804V352.387H144.285V339.804H131.701ZM145.124 339.804V352.387H157.708V339.804H145.124ZM158.547 339.804V352.387H171.13V339.804H158.547ZM171.969 339.804V352.387H184.551V339.804H171.969ZM185.39 339.804V352.387H197.974V339.804H185.39ZM198.812 339.804V352.387H211.396V339.804H198.812ZM212.234 339.804V352.387H224.816V339.804H212.234ZM225.655 339.804V352.387H238.239V339.804H225.655ZM239.078 339.804V352.387H251.661V339.804H239.078ZM252.5 339.804V352.387H265.084V339.804H252.5ZM265.923 339.804V352.387H278.504V339.804H265.923ZM279.343 339.804V352.387H291.927V339.804H279.343ZM292.766 339.804V352.387H305.35V339.804H292.766ZM306.188 339.804V352.387H318.77V339.804H306.188ZM319.608 339.804V352.387H332.192V339.804H319.608ZM333.031 339.804V352.387H345.615V339.804H333.031ZM10.9043 326.382V338.965H23.4883V326.382H10.9043ZM24.3271 326.382V338.965H36.9111V326.382H24.3271ZM37.75 326.382V338.965H50.3311V326.382H37.75ZM51.1699 326.382V338.965H63.7539V326.382H51.1699ZM64.5928 326.382V338.965H77.1768V326.382H64.5928ZM78.0156 326.382V338.965H90.5967V326.382H78.0156ZM91.4355 326.382V338.965H104.02V326.382H91.4355ZM104.858 326.382V338.965H117.442V326.382H104.858ZM118.281 326.382V338.965H130.862V326.382H118.281ZM131.701 326.382V338.965H144.285V326.382H131.701ZM145.124 326.382V338.965H157.708V326.382H145.124ZM158.547 326.382V338.965H171.13V326.382H158.547ZM171.969 326.382V338.965H184.551V326.382H171.969ZM185.39 326.382V338.965H197.974V326.382H185.39ZM198.812 326.382V338.965H211.396V326.382H198.812ZM212.234 326.382V338.965H224.816V326.382H212.234ZM225.655 326.382V338.965H238.239V326.382H225.655ZM239.078 326.382V338.965H251.661V326.382H239.078ZM252.5 326.382V338.965H265.084V326.382H252.5ZM265.923 326.382V338.965H278.504V326.382H265.923ZM279.343 326.382V338.965H291.927V326.382H279.343ZM292.766 326.382V338.965H305.35V326.382H292.766ZM306.188 326.382V338.965H318.77V326.382H306.188ZM319.608 326.382V338.965H332.192V326.382H319.608ZM333.031 326.382V338.965H345.615V326.382H333.031ZM10.9043 312.959V325.543H23.4883V312.959H10.9043ZM24.3271 312.959V325.543H36.9111V312.959H24.3271ZM37.75 312.959V325.543H50.3311V312.959H37.75ZM51.1699 312.959V325.543H63.7539V312.959H51.1699ZM64.5928 312.959V325.543H77.1768V312.959H64.5928ZM78.0156 312.959V325.543H90.5967V312.959H78.0156ZM91.4355 312.959V325.543H104.02V312.959H91.4355ZM104.858 312.959V325.543H117.442V312.959H104.858ZM118.281 312.959V325.543H130.862V312.959H118.281ZM131.701 312.959V325.543H144.285V312.959H131.701ZM145.124 312.959V325.543H157.708V312.959H145.124ZM158.547 312.959V325.543H171.13V312.959H158.547ZM171.969 312.959V325.543H184.551V312.959H171.969ZM185.39 312.959V325.543H197.974V312.959H185.39ZM198.812 312.959V325.543H211.396V312.959H198.812ZM212.234 312.959V325.543H224.816V312.959H212.234ZM225.655 312.959V325.543H238.239V312.959H225.655ZM239.078 312.959V325.543H251.661V312.959H239.078ZM252.5 312.959V325.543H265.084V312.959H252.5ZM265.923 312.959V325.543H278.504V312.959H265.923ZM279.343 312.959V325.543H291.927V312.959H279.343ZM292.766 312.959V325.543H305.35V312.959H292.766ZM306.188 312.959V325.543H318.77V312.959H306.188ZM319.608 312.959V325.543H332.192V312.959H319.608ZM333.031 312.959V325.543H345.615V312.959H333.031ZM10.9043 299.538V312.12H23.4883V299.538H10.9043ZM24.3271 299.538V312.12H36.9111V299.538H24.3271ZM37.75 299.538V312.12H50.3311V299.538H37.75ZM51.1699 299.538V312.12H63.7539V299.538H51.1699ZM64.5928 299.538V312.12H77.1768V299.538H64.5928ZM78.0156 299.538V312.12H90.5967V299.538H78.0156ZM91.4355 299.538V312.12H104.02V299.538H91.4355ZM104.858 299.538V312.12H117.442V299.538H104.858ZM118.281 299.538V312.12H130.862V299.538H118.281ZM131.701 299.538V312.12H144.285V299.538H131.701ZM145.124 299.538V312.12H157.708V299.538H145.124ZM158.547 299.538V312.12H171.13V299.538H158.547ZM171.969 299.538V312.12H184.551V299.538H171.969ZM185.39 299.538V312.12H197.974V299.538H185.39ZM198.812 299.538V312.12H211.396V299.538H198.812ZM212.234 299.538V312.12H224.816V299.538H212.234ZM225.655 299.538V312.12H238.239V299.538H225.655ZM239.078 299.538V312.12H251.661V299.538H239.078ZM252.5 299.538V312.12H265.084V299.538H252.5ZM265.923 299.538V312.12H278.504V299.538H265.923ZM279.343 299.538V312.12H291.927V299.538H279.343ZM292.766 299.538V312.12H305.35V299.538H292.766ZM306.188 299.538V312.12H318.77V299.538H306.188ZM319.608 299.538V312.12H332.192V299.538H319.608ZM333.031 299.538V312.12H345.615V299.538H333.031ZM10.9043 286.115V298.699H23.4883V286.115H10.9043ZM24.3271 286.115V298.699H36.9111V286.115H24.3271ZM37.75 286.115V298.699H50.3311V286.115H37.75ZM51.1699 286.115V298.699H63.7539V286.115H51.1699ZM64.5928 286.115V298.699H77.1768V286.115H64.5928ZM78.0156 286.115V298.699H90.5967V286.115H78.0156ZM91.4355 286.115V298.699H104.02V286.115H91.4355ZM104.858 286.115V298.699H117.442V286.115H104.858ZM118.281 286.115V298.699H130.862V286.115H118.281ZM131.701 286.115V298.699H144.285V286.115H131.701ZM145.124 286.115V298.699H157.708V286.115H145.124ZM158.547 286.115V298.699H171.13V286.115H158.547ZM171.969 286.115V298.699H184.551V286.115H171.969ZM185.39 286.115V298.699H197.974V286.115H185.39ZM198.812 286.115V298.699H211.396V286.115H198.812ZM212.234 286.115V298.699H224.816V286.115H212.234ZM225.655 286.115V298.699H238.239V286.115H225.655ZM239.078 286.115V298.699H251.661V286.115H239.078ZM252.5 286.115V298.699H265.084V286.115H252.5ZM265.923 286.115V298.699H278.504V286.115H265.923ZM279.343 286.115V298.699H291.927V286.115H279.343ZM292.766 286.115V298.699H305.35V286.115H292.766ZM306.188 286.115V298.699H318.77V286.115H306.188ZM319.608 286.115V298.699H332.192V286.115H319.608ZM333.031 286.115V298.699H345.615V286.115H333.031ZM10.9043 272.693V285.276H23.4883V272.693H10.9043ZM24.3271 272.693V285.276H36.9111V272.693H24.3271ZM37.75 272.693V285.276H50.3311V272.693H37.75ZM51.1699 272.693V285.276H63.7539V272.693H51.1699ZM64.5928 272.693V285.276H77.1768V272.693H64.5928ZM78.0156 272.693V285.276H90.5967V272.693H78.0156ZM91.4355 272.693V285.276H104.02V272.693H91.4355ZM104.858 272.693V285.276H117.442V272.693H104.858ZM118.281 272.693V285.276H130.862V272.693H118.281ZM131.701 272.693V285.276H144.285V272.693H131.701ZM145.124 272.693V285.276H157.708V272.693H145.124ZM158.547 272.693V285.276H171.13V272.693H158.547ZM171.969 272.693V285.276H184.551V272.693H171.969ZM185.39 272.693V285.276H197.974V272.693H185.39ZM198.812 272.693V285.276H211.396V272.693H198.812ZM212.234 272.693V285.276H224.816V272.693H212.234ZM225.655 272.693V285.276H238.239V272.693H225.655ZM239.078 272.693V285.276H251.661V272.693H239.078ZM252.5 272.693V285.276H265.084V272.693H252.5ZM265.923 272.693V285.276H278.504V272.693H265.923ZM279.343 272.693V285.276H291.927V272.693H279.343ZM292.766 272.693V285.276H305.35V272.693H292.766ZM306.188 272.693V285.276H318.77V272.693H306.188ZM319.608 272.693V285.276H332.192V272.693H319.608ZM333.031 272.693V285.276H345.615V272.693H333.031ZM10.9043 259.271V271.854H23.4883V259.271H10.9043ZM24.3271 259.271V271.854H36.9111V259.271H24.3271ZM37.75 259.271V271.854H50.3311V259.271H37.75ZM51.1699 259.271V271.854H63.7539V259.271H51.1699ZM64.5928 259.271V271.854H77.1768V259.271H64.5928ZM78.0156 259.271V271.854H90.5967V259.271H78.0156ZM91.4355 259.271V271.854H104.02V259.271H91.4355ZM104.858 259.271V271.854H117.442V259.271H104.858ZM118.281 259.271V271.854H130.862V259.271H118.281ZM131.701 259.271V271.854H144.285V259.271H131.701ZM145.124 259.271V271.854H157.708V259.271H145.124ZM158.547 259.271V271.854H171.13V259.271H158.547ZM171.969 259.271V271.854H184.551V259.271H171.969ZM185.39 259.271V271.854H197.974V259.271H185.39ZM198.812 259.271V271.854H211.396V259.271H198.812ZM212.234 259.271V271.854H224.816V259.271H212.234ZM225.655 259.271V271.854H238.239V259.271H225.655ZM239.078 259.271V271.854H251.661V259.271H239.078ZM252.5 259.271V271.854H265.084V259.271H252.5ZM265.923 259.271V271.854H278.504V259.271H265.923ZM279.343 259.271V271.854H291.927V259.271H279.343ZM292.766 259.271V271.854H305.35V259.271H292.766ZM306.188 259.271V271.854H318.77V259.271H306.188ZM319.608 259.271V271.854H332.192V259.271H319.608ZM333.031 259.271V271.854H345.615V259.271H333.031ZM10.9043 245.85V258.433H23.4883V245.85H10.9043ZM24.3271 245.85V258.433H36.9111V245.85H24.3271ZM37.75 245.85V258.433H50.3311V245.85H37.75ZM51.1699 245.85V258.433H63.7539V245.85H51.1699ZM64.5928 245.85V258.433H77.1768V245.85H64.5928ZM78.0156 245.85V258.433H90.5967V245.85H78.0156ZM91.4355 245.85V258.433H104.02V245.85H91.4355ZM104.858 245.85V258.433H117.442V245.85H104.858ZM118.281 245.85V258.433H130.862V245.85H118.281ZM131.701 245.85V258.433H144.285V245.85H131.701ZM145.124 245.85V258.433H157.708V245.85H145.124ZM158.547 245.85V258.433H171.13V245.85H158.547ZM171.969 245.85V258.433H184.551V245.85H171.969ZM185.39 245.85V258.433H197.974V245.85H185.39ZM198.812 245.85V258.433H211.396V245.85H198.812ZM212.234 245.85V258.433H224.816V245.85H212.234ZM225.655 245.85V258.433H238.239V245.85H225.655ZM239.078 245.85V258.433H251.661V245.85H239.078ZM252.5 245.85V258.433H265.084V245.85H252.5ZM265.923 245.85V258.433H278.504V245.85H265.923ZM279.343 245.85V258.433H291.927V245.85H279.343ZM292.766 245.85V258.433H305.35V245.85H292.766ZM306.188 245.85V258.433H318.77V245.85H306.188ZM319.608 245.85V258.433H332.192V245.85H319.608ZM333.031 245.85V258.433H345.615V245.85H333.031ZM10.9043 232.428V245.011H23.4883V232.428H10.9043ZM24.3271 232.428V245.011H36.9111V232.428H24.3271ZM37.75 232.428V245.011H50.3311V232.428H37.75ZM51.1699 232.428V245.011H63.7539V232.428H51.1699ZM64.5928 232.428V245.011H77.1768V232.428H64.5928ZM78.0156 232.428V245.011H90.5967V232.428H78.0156ZM91.4355 232.428V245.011H104.02V232.428H91.4355ZM104.858 232.428V245.011H117.442V232.428H104.858ZM118.281 232.428V245.011H130.862V232.428H118.281ZM131.701 232.428V245.011H144.285V232.428H131.701ZM145.124 232.428V245.011H157.708V232.428H145.124ZM158.547 232.428V245.011H171.13V232.428H158.547ZM171.969 232.428V245.011H184.551V232.428H171.969ZM185.39 232.428V245.011H197.974V232.428H185.39ZM198.812 232.428V245.011H211.396V232.428H198.812ZM212.234 232.428V245.011H224.816V232.428H212.234ZM225.655 232.428V245.011H238.239V232.428H225.655ZM239.078 232.428V245.011H251.661V232.428H239.078ZM252.5 232.428V245.011H265.084V232.428H252.5ZM265.923 232.428V245.011H278.504V232.428H265.923ZM279.343 232.428V245.011H291.927V232.428H279.343ZM292.766 232.428V245.011H305.35V232.428H292.766ZM306.188 232.428V245.011H318.77V232.428H306.188ZM319.608 232.428V245.011H332.192V232.428H319.608ZM333.031 232.428V245.011H345.615V232.428H333.031ZM10.9043 219.006V231.589H23.4883V219.006H10.9043ZM24.3271 219.006V231.589H36.9111V219.006H24.3271ZM37.75 219.006V231.589H50.3311V219.006H37.75ZM51.1699 219.006V231.589H63.7539V219.006H51.1699ZM64.5928 219.006V231.589H77.1768V219.006H64.5928ZM78.0156 219.006V231.589H90.5967V219.006H78.0156ZM91.4355 219.006V231.589H104.02V219.006H91.4355ZM104.858 219.006V231.589H117.442V219.006H104.858ZM118.281 219.006V231.589H130.862V219.006H118.281ZM131.701 219.006V231.589H144.285V219.006H131.701ZM145.124 219.006V231.589H157.708V219.006H145.124ZM158.547 219.006V231.589H171.13V219.006H158.547ZM171.969 219.006V231.589H184.551V219.006H171.969ZM185.39 219.006V231.589H197.974V219.006H185.39ZM198.812 219.006V231.589H211.396V219.006H198.812ZM212.234 219.006V231.589H224.816V219.006H212.234ZM225.655 219.006V231.589H238.239V219.006H225.655ZM239.078 219.006V231.589H251.661V219.006H239.078ZM252.5 219.006V231.589H265.084V219.006H252.5ZM265.923 219.006V231.589H278.504V219.006H265.923ZM279.343 219.006V231.589H291.927V219.006H279.343ZM292.766 219.006V231.589H305.35V219.006H292.766ZM306.188 219.006V231.589H318.77V219.006H306.188ZM319.608 219.006V231.589H332.192V219.006H319.608ZM333.031 219.006V231.589H345.615V219.006H333.031ZM10.9043 205.584V218.167H23.4883V205.584H10.9043ZM24.3271 205.584V218.167H36.9111V205.584H24.3271ZM37.75 205.584V218.167H50.3311V205.584H37.75ZM51.1699 205.584V218.167H63.7539V205.584H51.1699ZM64.5928 205.584V218.167H77.1768V205.584H64.5928ZM78.0156 205.584V218.167H90.5967V205.584H78.0156ZM91.4355 205.584V218.167H104.02V205.584H91.4355ZM104.858 205.584V218.167H117.442V205.584H104.858ZM118.281 205.584V218.167H130.862V205.584H118.281ZM131.701 205.584V218.167H144.285V205.584H131.701ZM145.124 205.584V218.167H157.708V205.584H145.124ZM158.547 205.584V218.167H171.13V205.584H158.547ZM171.969 205.584V218.167H184.551V205.584H171.969ZM185.39 205.584V218.167H197.974V205.584H185.39ZM198.812 205.584V218.167H211.396V205.584H198.812ZM212.234 205.584V218.167H224.816V205.584H212.234ZM225.655 205.584V218.167H238.239V205.584H225.655ZM239.078 205.584V218.167H251.661V205.584H239.078ZM252.5 205.584V218.167H265.084V205.584H252.5ZM265.923 205.584V218.167H278.504V205.584H265.923ZM279.343 205.584V218.167H291.927V205.584H279.343ZM292.766 205.584V218.167H305.35V205.584H292.766ZM306.188 205.584V218.167H318.77V205.584H306.188ZM319.608 205.584V218.167H332.192V205.584H319.608ZM333.031 205.584V218.167H345.615V205.584H333.031ZM10.9043 192.162V204.745H23.4883V192.162H10.9043ZM24.3271 192.162V204.745H36.9111V192.162H24.3271ZM37.75 192.162V204.745H50.3311V192.162H37.75ZM51.1699 192.162V204.745H63.7539V192.162H51.1699ZM64.5928 192.162V204.745H77.1768V192.162H64.5928ZM78.0156 192.162V204.745H90.5967V192.162H78.0156ZM91.4355 192.162V204.745H104.02V192.162H91.4355ZM104.858 192.162V204.745H117.442V192.162H104.858ZM118.281 192.162V204.745H130.862V192.162H118.281ZM131.701 192.162V204.745H144.285V192.162H131.701ZM145.124 192.162V204.745H157.708V192.162H145.124ZM158.547 192.162V204.745H171.13V192.162H158.547ZM171.969 192.162V204.745H184.551V192.162H171.969ZM185.39 192.162V204.745H197.974V192.162H185.39ZM198.812 192.162V204.745H211.396V192.162H198.812ZM212.234 192.162V204.745H224.816V192.162H212.234ZM225.655 192.162V204.745H238.239V192.162H225.655ZM239.078 192.162V204.745H251.661V192.162H239.078ZM252.5 192.162V204.745H265.084V192.162H252.5ZM265.923 192.162V204.745H278.504V192.162H265.923ZM279.343 192.162V204.745H291.927V192.162H279.343ZM292.766 192.162V204.745H305.35V192.162H292.766ZM306.188 192.162V204.745H318.77V192.162H306.188ZM319.608 192.162V204.745H332.192V192.162H319.608ZM333.031 192.162V204.745H345.615V192.162H333.031ZM10.9043 178.74V191.323H23.4883V178.74H10.9043ZM24.3271 178.74V191.323H36.9111V178.74H24.3271ZM37.75 178.74V191.323H50.3311V178.74H37.75ZM51.1699 178.74V191.323H63.7539V178.74H51.1699ZM64.5928 178.74V191.323H77.1768V178.74H64.5928ZM78.0156 178.74V191.323H90.5967V178.74H78.0156ZM91.4355 178.74V191.323H104.02V178.74H91.4355ZM104.858 178.74V191.323H117.442V178.74H104.858ZM118.281 178.74V191.323H130.862V178.74H118.281ZM131.701 178.74V191.323H144.285V178.74H131.701ZM145.124 178.74V191.323H157.708V178.74H145.124ZM158.547 178.74V191.323H171.13V178.74H158.547ZM171.969 178.74V191.323H184.551V178.74H171.969ZM185.39 178.74V191.323H197.974V178.74H185.39ZM198.812 178.74V191.323H211.396V178.74H198.812ZM212.234 178.74V191.323H224.816V178.74H212.234ZM225.655 178.74V191.323H238.239V178.74H225.655ZM239.078 178.74V191.323H251.661V178.74H239.078ZM252.5 178.74V191.323H265.084V178.74H252.5ZM265.923 178.74V191.323H278.504V178.74H265.923ZM279.343 178.74V191.323H291.927V178.74H279.343ZM292.766 178.74V191.323H305.35V178.74H292.766ZM306.188 178.74V191.323H318.77V178.74H306.188ZM319.608 178.74V191.323H332.192V178.74H319.608ZM333.031 178.74V191.323H345.615V178.74H333.031ZM10.9043 165.318V177.901H23.4883V165.318H10.9043ZM24.3271 165.318V177.901H36.9111V165.318H24.3271ZM37.75 165.318V177.901H50.3311V165.318H37.75ZM51.1699 165.318V177.901H63.7539V165.318H51.1699ZM64.5928 165.318V177.901H77.1768V165.318H64.5928ZM78.0156 165.318V177.901H90.5967V165.318H78.0156ZM91.4355 165.318V177.901H104.02V165.318H91.4355ZM104.858 165.318V177.901H117.442V165.318H104.858ZM118.281 165.318V177.901H130.862V165.318H118.281ZM131.701 165.318V177.901H144.285V165.318H131.701ZM145.124 165.318V177.901H157.708V165.318H145.124ZM158.547 165.318V177.901H171.13V165.318H158.547ZM171.969 165.318V177.901H184.551V165.318H171.969ZM185.39 165.318V177.901H197.974V165.318H185.39ZM198.812 165.318V177.901H211.396V165.318H198.812ZM212.234 165.318V177.901H224.816V165.318H212.234ZM225.655 165.318V177.901H238.239V165.318H225.655ZM239.078 165.318V177.901H251.661V165.318H239.078ZM252.5 165.318V177.901H265.084V165.318H252.5ZM265.923 165.318V177.901H278.504V165.318H265.923ZM279.343 165.318V177.901H291.927V165.318H279.343ZM292.766 165.318V177.901H305.35V165.318H292.766ZM306.188 165.318V177.901H318.77V165.318H306.188ZM319.608 165.318V177.901H332.192V165.318H319.608ZM333.031 165.318V177.901H345.615V165.318H333.031ZM10.9043 151.896V164.479H23.4883V151.896H10.9043ZM24.3271 151.896V164.479H36.9111V151.896H24.3271ZM37.75 151.896V164.479H50.3311V151.896H37.75ZM51.1699 151.896V164.479H63.7539V151.896H51.1699ZM64.5928 151.896V164.479H77.1768V151.896H64.5928ZM78.0156 151.896V164.479H90.5967V151.896H78.0156ZM91.4355 151.896V164.479H104.02V151.896H91.4355ZM104.858 151.896V164.479H117.442V151.896H104.858ZM118.281 151.896V164.479H130.862V151.896H118.281ZM131.701 151.896V164.479H144.285V151.896H131.701ZM145.124 151.896V164.479H157.708V151.896H145.124ZM158.547 151.896V164.479H171.13V151.896H158.547ZM171.969 151.896V164.479H184.551V151.896H171.969ZM185.39 151.896V164.479H197.974V151.896H185.39ZM198.812 151.896V164.479H211.396V151.896H198.812ZM212.234 151.896V164.479H224.816V151.896H212.234ZM225.655 151.896V164.479H238.239V151.896H225.655ZM239.078 151.896V164.479H251.661V151.896H239.078ZM252.5 151.896V164.479H265.084V151.896H252.5ZM265.923 151.896V164.479H278.504V151.896H265.923ZM279.343 151.896V164.479H291.927V151.896H279.343ZM292.766 151.896V164.479H305.35V151.896H292.766ZM306.188 151.896V164.479H318.77V151.896H306.188ZM319.608 151.896V164.479H332.192V151.896H319.608ZM333.031 151.896V164.479H345.615V151.896H333.031ZM10.9043 138.475V151.058H23.4883V138.475H10.9043ZM24.3271 138.475V151.058H36.9111V138.475H24.3271ZM37.75 138.475V151.058H50.3311V138.475H37.75ZM51.1699 138.475V151.058H63.7539V138.475H51.1699ZM64.5928 138.475V151.058H77.1768V138.475H64.5928ZM78.0156 138.475V151.058H90.5967V138.475H78.0156ZM91.4355 138.475V151.058H104.02V138.475H91.4355ZM104.858 138.475V151.058H117.442V138.475H104.858ZM118.281 138.475V151.058H130.862V138.475H118.281ZM131.701 138.475V151.058H144.285V138.475H131.701ZM145.124 138.475V151.058H157.708V138.475H145.124ZM158.547 138.475V151.058H171.13V138.475H158.547ZM171.969 138.475V151.058H184.551V138.475H171.969ZM185.39 138.475V151.058H197.974V138.475H185.39ZM198.812 138.475V151.058H211.396V138.475H198.812ZM212.234 138.475V151.058H224.816V138.475H212.234ZM225.655 138.475V151.058H238.239V138.475H225.655ZM239.078 138.475V151.058H251.661V138.475H239.078ZM252.5 138.475V151.058H265.084V138.475H252.5ZM265.923 138.475V151.058H278.504V138.475H265.923ZM279.343 138.475V151.058H291.927V138.475H279.343ZM292.766 138.475V151.058H305.35V138.475H292.766ZM306.188 138.475V151.058H318.77V138.475H306.188ZM319.608 138.475V151.058H332.192V138.475H319.608ZM333.031 138.475V151.058H345.615V138.475H333.031ZM10.9043 125.053V137.636H23.4883V125.053H10.9043ZM24.3271 125.053V137.636H36.9111V125.053H24.3271ZM37.75 125.053V137.636H50.3311V125.053H37.75ZM51.1699 125.053V137.636H63.7539V125.053H51.1699ZM64.5928 125.053V137.636H77.1768V125.053H64.5928ZM78.0156 125.053V137.636H90.5967V125.053H78.0156ZM91.4355 125.053V137.636H104.02V125.053H91.4355ZM104.858 125.053V137.636H117.442V125.053H104.858ZM118.281 125.053V137.636H130.862V125.053H118.281ZM131.701 125.053V137.636H144.285V125.053H131.701ZM145.124 125.053V137.636H157.708V125.053H145.124ZM158.547 125.053V137.636H171.13V125.053H158.547ZM171.969 125.053V137.636H184.551V125.053H171.969ZM185.39 125.053V137.636H197.974V125.053H185.39ZM198.812 125.053V137.636H211.396V125.053H198.812ZM212.234 125.053V137.636H224.816V125.053H212.234ZM225.655 125.053V137.636H238.239V125.053H225.655ZM239.078 125.053V137.636H251.661V125.053H239.078ZM252.5 125.053V137.636H265.084V125.053H252.5ZM265.923 125.053V137.636H278.504V125.053H265.923ZM279.343 125.053V137.636H291.927V125.053H279.343ZM292.766 125.053V137.636H305.35V125.053H292.766ZM306.188 125.053V137.636H318.77V125.053H306.188ZM319.608 125.053V137.636H332.192V125.053H319.608ZM333.031 125.053V137.636H345.615V125.053H333.031ZM10.9043 111.631V124.214H23.4883V111.631H10.9043ZM24.3271 111.631V124.214H36.9111V111.631H24.3271ZM37.75 111.631V124.214H50.3311V111.631H37.75ZM51.1699 111.631V124.214H63.7539V111.631H51.1699ZM64.5928 111.631V124.214H77.1768V111.631H64.5928ZM78.0156 111.631V124.214H90.5967V111.631H78.0156ZM91.4355 111.631V124.214H104.02V111.631H91.4355ZM104.858 111.631V124.214H117.442V111.631H104.858ZM118.281 111.631V124.214H130.862V111.631H118.281ZM131.701 111.631V124.214H144.285V111.631H131.701ZM145.124 111.631V124.214H157.708V111.631H145.124ZM158.547 111.631V124.214H171.13V111.631H158.547ZM171.969 111.631V124.214H184.551V111.631H171.969ZM185.39 111.631V124.214H197.974V111.631H185.39ZM198.812 111.631V124.214H211.396V111.631H198.812ZM212.234 111.631V124.214H224.816V111.631H212.234ZM225.655 111.631V124.214H238.239V111.631H225.655ZM239.078 111.631V124.214H251.661V111.631H239.078ZM252.5 111.631V124.214H265.084V111.631H252.5ZM265.923 111.631V124.214H278.504V111.631H265.923ZM279.343 111.631V124.214H291.927V111.631H279.343ZM292.766 111.631V124.214H305.35V111.631H292.766ZM306.188 111.631V124.214H318.77V111.631H306.188ZM319.608 111.631V124.214H332.192V111.631H319.608ZM333.031 111.631V124.214H345.615V111.631H333.031ZM10.9043 98.209V110.792H23.4883V98.209H10.9043ZM24.3271 98.209V110.792H36.9111V98.209H24.3271ZM37.75 98.209V110.792H50.3311V98.209H37.75ZM51.1699 98.209V110.792H63.7539V98.209H51.1699ZM64.5928 98.209V110.792H77.1768V98.209H64.5928ZM78.0156 98.209V110.792H90.5967V98.209H78.0156ZM91.4355 98.209V110.792H104.02V98.209H91.4355ZM104.858 98.209V110.792H117.442V98.209H104.858ZM118.281 98.209V110.792H130.862V98.209H118.281ZM131.701 98.209V110.792H144.285V98.209H131.701ZM145.124 98.209V110.792H157.708V98.209H145.124ZM158.547 98.209V110.792H171.13V98.209H158.547ZM171.969 98.209V110.792H184.551V98.209H171.969ZM185.39 98.209V110.792H197.974V98.209H185.39ZM198.812 98.209V110.792H211.396V98.209H198.812ZM212.234 98.209V110.792H224.816V98.209H212.234ZM225.655 98.209V110.792H238.239V98.209H225.655ZM239.078 98.209V110.792H251.661V98.209H239.078ZM252.5 98.209V110.792H265.084V98.209H252.5ZM265.923 98.209V110.792H278.504V98.209H265.923ZM279.343 98.209V110.792H291.927V98.209H279.343ZM292.766 98.209V110.792H305.35V98.209H292.766ZM306.188 98.209V110.792H318.77V98.209H306.188ZM319.608 98.209V110.792H332.192V98.209H319.608ZM333.031 98.209V110.792H345.615V98.209H333.031ZM10.9043 84.7861V97.3701H23.4883V84.7861H10.9043ZM24.3271 84.7861V97.3701H36.9111V84.7861H24.3271ZM37.75 84.7861V97.3701H50.3311V84.7861H37.75ZM51.1699 84.7861V97.3701H63.7539V84.7861H51.1699ZM64.5928 84.7861V97.3701H77.1768V84.7861H64.5928ZM78.0156 84.7861V97.3701H90.5967V84.7861H78.0156ZM91.4355 84.7861V97.3701H104.02V84.7861H91.4355ZM104.858 84.7861V97.3701H117.442V84.7861H104.858ZM118.281 84.7861V97.3701H130.862V84.7861H118.281ZM131.701 84.7861V97.3701H144.285V84.7861H131.701ZM145.124 84.7861V97.3701H157.708V84.7861H145.124ZM158.547 84.7861V97.3701H171.13V84.7861H158.547ZM171.969 84.7861V97.3701H184.551V84.7861H171.969ZM185.39 84.7861V97.3701H197.974V84.7861H185.39ZM198.812 84.7861V97.3701H211.396V84.7861H198.812ZM212.234 84.7861V97.3701H224.816V84.7861H212.234ZM225.655 84.7861V97.3701H238.239V84.7861H225.655ZM239.078 84.7861V97.3701H251.661V84.7861H239.078ZM252.5 84.7861V97.3701H265.084V84.7861H252.5ZM265.923 84.7861V97.3701H278.504V84.7861H265.923ZM279.343 84.7861V97.3701H291.927V84.7861H279.343ZM292.766 84.7861V97.3701H305.35V84.7861H292.766ZM306.188 84.7861V97.3701H318.77V84.7861H306.188ZM319.608 84.7861V97.3701H332.192V84.7861H319.608ZM333.031 84.7861V97.3701H345.615V84.7861H333.031ZM10.9043 71.3643V83.9473H23.4883V71.3643H10.9043ZM24.3271 71.3643V83.9473H36.9111V71.3643H24.3271ZM37.75 71.3643V83.9473H50.3311V71.3643H37.75ZM51.1699 71.3643V83.9473H63.7539V71.3643H51.1699ZM64.5928 71.3643V83.9473H77.1768V71.3643H64.5928ZM78.0156 71.3643V83.9473H90.5967V71.3643H78.0156ZM91.4355 71.3643V83.9473H104.02V71.3643H91.4355ZM104.858 71.3643V83.9473H117.442V71.3643H104.858ZM118.281 71.3643V83.9473H130.862V71.3643H118.281ZM131.701 71.3643V83.9473H144.285V71.3643H131.701ZM145.124 71.3643V83.9473H157.708V71.3643H145.124ZM158.547 71.3643V83.9473H171.13V71.3643H158.547ZM171.969 71.3643V83.9473H184.551V71.3643H171.969ZM185.39 71.3643V83.9473H197.974V71.3643H185.39ZM198.812 71.3643V83.9473H211.396V71.3643H198.812ZM212.234 71.3643V83.9473H224.816V71.3643H212.234ZM225.655 71.3643V83.9473H238.239V71.3643H225.655ZM239.078 71.3643V83.9473H251.661V71.3643H239.078ZM252.5 71.3643V83.9473H265.084V71.3643H252.5ZM265.923 71.3643V83.9473H278.504V71.3643H265.923ZM279.343 71.3643V83.9473H291.927V71.3643H279.343ZM292.766 71.3643V83.9473H305.35V71.3643H292.766ZM306.188 71.3643V83.9473H318.77V71.3643H306.188ZM319.608 71.3643V83.9473H332.192V71.3643H319.608ZM333.031 71.3643V83.9473H345.615V71.3643H333.031ZM10.9043 57.9424V70.5254H23.4883V57.9424H10.9043ZM24.3271 57.9424V70.5254H36.9111V57.9424H24.3271ZM37.75 57.9424V70.5254H50.3311V57.9424H37.75ZM51.1699 57.9424V70.5254H63.7539V57.9424H51.1699ZM64.5928 57.9424V70.5254H77.1768V57.9424H64.5928ZM78.0156 57.9424V70.5254H90.5967V57.9424H78.0156ZM91.4355 57.9424V70.5254H104.02V57.9424H91.4355ZM104.858 57.9424V70.5254H117.442V57.9424H104.858ZM118.281 57.9424V70.5254H130.862V57.9424H118.281ZM131.701 57.9424V70.5254H144.285V57.9424H131.701ZM145.124 57.9424V70.5254H157.708V57.9424H145.124ZM158.547 57.9424V70.5254H171.13V57.9424H158.547ZM171.969 57.9424V70.5254H184.551V57.9424H171.969ZM185.39 57.9424V70.5254H197.974V57.9424H185.39ZM198.812 57.9424V70.5254H211.396V57.9424H198.812ZM212.234 57.9424V70.5254H224.816V57.9424H212.234ZM225.655 57.9424V70.5254H238.239V57.9424H225.655ZM239.078 57.9424V70.5254H251.661V57.9424H239.078ZM252.5 57.9424V70.5254H265.084V57.9424H252.5ZM265.923 57.9424V70.5254H278.504V57.9424H265.923ZM279.343 57.9424V70.5254H291.927V57.9424H279.343ZM292.766 57.9424V70.5254H305.35V57.9424H292.766ZM306.188 57.9424V70.5254H318.77V57.9424H306.188ZM319.608 57.9424V70.5254H332.192V57.9424H319.608ZM333.031 57.9424V70.5254H345.615V57.9424H333.031ZM10.9043 44.5205V57.1035H23.4883V44.5205H10.9043ZM24.3271 44.5205V57.1035H36.9111V44.5205H24.3271ZM37.75 44.5205V57.1035H50.3311V44.5205H37.75ZM51.1699 44.5205V57.1035H63.7539V44.5205H51.1699ZM64.5928 44.5205V57.1035H77.1768V44.5205H64.5928ZM78.0156 44.5205V57.1035H90.5967V44.5205H78.0156ZM91.4355 44.5205V57.1035H104.02V44.5205H91.4355ZM104.858 44.5205V57.1035H117.442V44.5205H104.858ZM118.281 44.5205V57.1035H130.862V44.5205H118.281ZM131.701 44.5205V57.1035H144.285V44.5205H131.701ZM145.124 44.5205V57.1035H157.708V44.5205H145.124ZM158.547 44.5205V57.1035H171.13V44.5205H158.547ZM171.969 44.5205V57.1035H184.551V44.5205H171.969ZM185.39 44.5205V57.1035H197.974V44.5205H185.39ZM198.812 44.5205V57.1035H211.396V44.5205H198.812ZM212.234 44.5205V57.1035H224.816V44.5205H212.234ZM225.655 44.5205V57.1035H238.239V44.5205H225.655ZM239.078 44.5205V57.1035H251.661V44.5205H239.078ZM252.5 44.5205V57.1035H265.084V44.5205H252.5ZM265.923 44.5205V57.1035H278.504V44.5205H265.923ZM279.343 44.5205V57.1035H291.927V44.5205H279.343ZM292.766 44.5205V57.1035H305.35V44.5205H292.766ZM306.188 44.5205V57.1035H318.77V44.5205H306.188ZM319.608 44.5205V57.1035H332.192V44.5205H319.608ZM333.031 44.5205V57.1035H345.615V44.5205H333.031ZM10.9043 31.0986V43.6816H23.4883V31.0986H10.9043ZM24.3271 31.0986V43.6816H36.9111V31.0986H24.3271ZM37.75 31.0986V43.6816H50.3311V31.0986H37.75ZM51.1699 31.0986V43.6816H63.7539V31.0986H51.1699ZM64.5928 31.0986V43.6816H77.1768V31.0986H64.5928ZM78.0156 31.0986V43.6816H90.5967V31.0986H78.0156ZM91.4355 31.0986V43.6816H104.02V31.0986H91.4355ZM104.858 31.0986V43.6816H117.442V31.0986H104.858ZM118.281 31.0986V43.6816H130.862V31.0986H118.281ZM131.701 31.0986V43.6816H144.285V31.0986H131.701ZM145.124 31.0986V43.6816H157.708V31.0986H145.124ZM158.547 31.0986V43.6816H171.13V31.0986H158.547ZM171.969 31.0986V43.6816H184.551V31.0986H171.969ZM185.39 31.0986V43.6816H197.974V31.0986H185.39ZM198.812 31.0986V43.6816H211.396V31.0986H198.812ZM212.234 31.0986V43.6816H224.816V31.0986H212.234ZM225.655 31.0986V43.6816H238.239V31.0986H225.655ZM239.078 31.0986V43.6816H251.661V31.0986H239.078ZM252.5 31.0986V43.6816H265.084V31.0986H252.5ZM265.923 31.0986V43.6816H278.504V31.0986H265.923ZM279.343 31.0986V43.6816H291.927V31.0986H279.343ZM292.766 31.0986V43.6816H305.35V31.0986H292.766ZM306.188 31.0986V43.6816H318.77V31.0986H306.188ZM319.608 31.0986V43.6816H332.192V31.0986H319.608ZM333.031 31.0986V43.6816H345.615V31.0986H333.031ZM10.9043 17.6768V30.2598H23.4883V17.6768H10.9043ZM24.3271 17.6768V30.2598H36.9111V17.6768H24.3271ZM37.75 17.6768V30.2598H50.3311V17.6768H37.75ZM51.1699 17.6768V30.2598H63.7539V17.6768H51.1699ZM64.5928 17.6768V30.2598H77.1768V17.6768H64.5928ZM78.0156 17.6768V30.2598H90.5967V17.6768H78.0156ZM91.4355 17.6768V30.2598H104.02V17.6768H91.4355ZM104.858 17.6768V30.2598H117.442V17.6768H104.858ZM118.281 17.6768V30.2598H130.862V17.6768H118.281ZM131.701 17.6768V30.2598H144.285V17.6768H131.701ZM145.124 17.6768V30.2598H157.708V17.6768H145.124ZM158.547 17.6768V30.2598H171.13V17.6768H158.547ZM171.969 17.6768V30.2598H184.551V17.6768H171.969ZM185.39 17.6768V30.2598H197.974V17.6768H185.39ZM198.812 17.6768V30.2598H211.396V17.6768H198.812ZM212.234 17.6768V30.2598H224.816V17.6768H212.234ZM225.655 17.6768V30.2598H238.239V17.6768H225.655ZM239.078 17.6768V30.2598H251.661V17.6768H239.078ZM252.5 17.6768V30.2598H265.084V17.6768H252.5ZM265.923 17.6768V30.2598H278.504V17.6768H265.923ZM279.343 17.6768V30.2598H291.927V17.6768H279.343ZM292.766 17.6768V30.2598H305.35V17.6768H292.766ZM306.188 17.6768V30.2598H318.77V17.6768H306.188ZM319.608 17.6768V30.2598H332.192V17.6768H319.608ZM333.031 17.6768V30.2598H345.615V17.6768H333.031ZM10.9043 4.25488V16.8379H23.4883V4.25488H10.9043ZM24.3271 4.25488V16.8379H36.9111V4.25488H24.3271ZM37.75 4.25488V16.8379H50.3311V4.25488H37.75ZM51.1699 4.25488V16.8379H63.7539V4.25488H51.1699ZM64.5928 4.25488V16.8379H77.1768V4.25488H64.5928ZM78.0156 4.25488V16.8379H90.5967V4.25488H78.0156ZM91.4355 4.25488V16.8379H104.02V4.25488H91.4355ZM104.858 4.25488V16.8379H117.442V4.25488H104.858ZM118.281 4.25488V16.8379H130.862V4.25488H118.281ZM131.701 4.25488V16.8379H144.285V4.25488H131.701ZM145.124 4.25488V16.8379H157.708V4.25488H145.124ZM158.547 4.25488V16.8379H171.13V4.25488H158.547ZM171.969 4.25488V16.8379H184.551V4.25488H171.969ZM185.39 4.25488V16.8379H197.974V4.25488H185.39ZM198.812 4.25488V16.8379H211.396V4.25488H198.812ZM212.234 4.25488V16.8379H224.816V4.25488H212.234ZM225.655 4.25488V16.8379H238.239V4.25488H225.655ZM239.078 4.25488V16.8379H251.661V4.25488H239.078ZM252.5 4.25488V16.8379H265.084V4.25488H252.5ZM265.923 4.25488V16.8379H278.504V4.25488H265.923ZM279.343 4.25488V16.8379H291.927V4.25488H279.343ZM292.766 4.25488V16.8379H305.35V4.25488H292.766ZM306.188 4.25488V16.8379H318.77V4.25488H306.188ZM319.608 4.25488V16.8379H332.192V4.25488H319.608ZM333.031 4.25488V16.8379H345.615V4.25488H333.031Z" fill="url(#paint0_radial_0_3101)"/>
<defs>
<radialGradient id="paint0_radial_0_3101" cx="0" cy="0" r="1" gradientUnits="userSpaceOnUse" gradientTransform="translate(178.26 251.661) rotate(90) scale(251.661 178.26)">
<stop stop-color="#747474"/>
<stop offset="1" stop-color="#747474" stop-opacity="0"/>
</radialGradient>
</defs>
</svg>
