<svg preserveAspectRatio="none" width="100%" height="100%" overflow="visible" style="display: block;" viewBox="0 0 68 50" fill="none" xmlns="http://www.w3.org/2000/svg">
<g id="Levels">
<g id="Battery">
<path id="Rectangle" opacity="0.35" d="M45.667 21.8339H62.333C63.5296 21.8339 64.5 22.8043 64.5 24.0009V30.0009C64.4998 31.1974 63.5295 32.1669 62.333 32.1669H45.667C44.4705 32.1669 43.5002 31.1974 43.5 30.0009V24.0009C43.5 22.8043 44.4704 21.8339 45.667 21.8339Z" stroke="var(--stroke-0, white)"/>
<path id="Combined Shape" opacity="0.4" d="M66 25.001V29.001C66.8047 28.6622 67.328 27.8741 67.328 27.001C67.328 26.1278 66.8047 25.3398 66 25.001" fill="var(--fill-0, white)"/>
<path id="Rectangle_2" d="M45 24.6672C45 23.9309 45.597 23.3339 46.3333 23.3339H61.6667C62.403 23.3339 63 23.9309 63 24.6672V29.3339C63 30.0703 62.403 30.6672 61.6667 30.6672H46.3333C45.597 30.6672 45 30.0703 45 29.3339V24.6672Z" fill="var(--fill-0, white)"/>
</g>
<path id="Wifi" d="M28.1205 29.7314C29.3961 28.6526 31.2648 28.6526 32.5404 29.7314C32.6043 29.7895 32.6412 29.8717 32.6429 29.958C32.6446 30.0443 32.6108 30.128 32.5492 30.1885L30.5521 32.2041C30.4936 32.2632 30.4136 32.2959 30.3304 32.2959C30.2473 32.2959 30.1673 32.2632 30.1088 32.2041L28.1107 30.1885C28.049 30.1278 28.0151 30.0435 28.017 29.957C28.0189 29.8708 28.0566 29.7893 28.1205 29.7314ZM25.4554 27.042C28.2035 24.4859 32.4593 24.486 35.2074 27.042C35.2693 27.1019 35.3051 27.1844 35.306 27.2705C35.3069 27.3567 35.273 27.4398 35.2123 27.501L34.058 28.668C33.939 28.7871 33.7465 28.7897 33.6244 28.6738C32.7219 27.8566 31.5479 27.4042 30.3304 27.4043C29.1138 27.4048 27.9403 27.8572 27.0385 28.6738C26.9164 28.7895 26.7248 28.7868 26.6058 28.668L25.4506 27.501C25.3899 27.4399 25.356 27.3566 25.3568 27.2705C25.3577 27.1844 25.3935 27.1018 25.4554 27.042ZM22.7904 24.3604C27.0055 20.3211 33.6555 20.3209 37.8705 24.3604C37.9314 24.4203 37.9656 24.5024 37.9662 24.5879C37.9667 24.6735 37.9327 24.7557 37.8724 24.8164L36.7172 25.9834C36.5981 26.1031 36.4045 26.1042 36.2836 25.9863C34.6776 24.4596 32.5463 23.6085 30.3304 23.6084C28.1143 23.6084 25.9825 24.4594 24.3763 25.9863C24.2556 26.1043 24.0628 26.1031 23.9437 25.9834L22.7875 24.8164C22.7272 24.7556 22.6932 24.6735 22.6937 24.5879C22.6943 24.5024 22.7294 24.4203 22.7904 24.3604Z" fill="var(--fill-0, white)"/>
<path id="Mobile Signal" d="M16.6666 21.667C17.2189 21.667 17.6666 22.1147 17.6666 22.667V31.334C17.6665 31.8861 17.2188 32.334 16.6666 32.334H15.6666C15.1144 32.334 14.6668 31.8861 14.6666 31.334V22.667C14.6666 22.1147 15.1143 21.667 15.6666 21.667H16.6666ZM2.66663 28.333C3.21884 28.333 3.66652 28.7808 3.66663 29.333V31.333C3.66663 31.8853 3.21891 32.333 2.66663 32.333H1.66663C1.11434 32.333 0.666626 31.8853 0.666626 31.333V29.333C0.666735 28.7808 1.11441 28.333 1.66663 28.333H2.66663ZM7.33362 26.333C7.88569 26.3332 8.33351 26.7809 8.33362 27.333V31.333C8.33362 31.8852 7.88575 32.3328 7.33362 32.333H6.33362C5.78133 32.333 5.33362 31.8853 5.33362 31.333V27.333C5.33373 26.7808 5.7814 26.333 6.33362 26.333H7.33362ZM11.9996 24C12.5519 24 12.9996 24.4477 12.9996 25V31.333C12.9996 31.8853 12.5519 32.333 11.9996 32.333H10.9996C10.4475 32.3328 9.99963 31.8852 9.99963 31.333V25C9.99963 24.4478 10.4475 24.0002 10.9996 24H11.9996Z" fill="var(--fill-0, white)"/>
</g>
</svg>
