<svg width="20" height="20" viewBox="0 0 20 20" fill="none" xmlns="http://www.w3.org/2000/svg">
<mask id="mask0_14912_33869" style="mask-type:alpha" maskUnits="userSpaceOnUse" x="2" y="1" width="16" height="18">
<path d="M8.16667 8.54158C8.53486 8.54158 8.83333 8.84006 8.83333 9.20825V13.6249L8.83313 13.6421C8.824 14.0024 8.5291 14.2916 8.16667 14.2916C7.80423 14.2916 7.50933 14.0024 7.5002 13.6421L7.5 13.6249V9.20825C7.5 8.84006 7.79848 8.54158 8.16667 8.54158Z" fill="black"/>
<path d="M11.875 8.54158C12.2432 8.54158 12.5417 8.84006 12.5417 9.20825V13.6249L12.5415 13.6421C12.5323 14.0024 12.2374 14.2916 11.875 14.2916C11.5126 14.2916 11.2177 14.0024 11.2085 13.6421L11.2083 13.6249V9.20825C11.2083 8.84006 11.5068 8.54158 11.875 8.54158Z" fill="black"/>
<path fill-rule="evenodd" clip-rule="evenodd" d="M17.3505 4.50012C17.7108 4.50925 18 4.80415 18 5.16659C18 5.52902 17.7108 5.82392 17.3505 5.83305L17.3333 5.83325H16.7083V14.6831C16.7083 15.7903 16.4557 16.7404 15.7913 17.4049C15.1268 18.0693 14.1767 18.3219 13.0695 18.3219H6.93046C5.8233 18.3219 4.87321 18.0693 4.20874 17.4049C3.54427 16.7404 3.29167 15.7903 3.29167 14.6831V5.83325H2.66667C2.29848 5.83325 2 5.53477 2 5.16659C2 4.7984 2.29848 4.49992 2.66667 4.49992H17.3333L17.3505 4.50012ZM4.625 14.6831C4.625 15.614 4.83945 16.15 5.15153 16.4621C5.46362 16.7742 5.9996 16.9886 6.93046 16.9886H13.0695C14.0004 16.9886 14.5364 16.7742 14.8485 16.4621C15.1606 16.15 15.375 15.614 15.375 14.6831V5.83325H4.625V14.6831Z" fill="black"/>
<path d="M11.875 1.95825C12.2432 1.95825 12.5417 2.25673 12.5417 2.62492C12.5417 2.99311 12.2432 3.29159 11.875 3.29159H8.125C7.75681 3.29159 7.45833 2.99311 7.45833 2.62492C7.45833 2.25673 7.75681 1.95825 8.125 1.95825H11.875Z" fill="black"/>
</mask>
<g mask="url(#mask0_14912_33869)">
<rect width="20" height="20" fill="#FD3D4A"/>
</g>
</svg>
