<svg width="20" height="20" viewBox="0 0 20 20" fill="none" xmlns="http://www.w3.org/2000/svg">
<mask id="mask0_14912_33871" style="mask-type:alpha" maskUnits="userSpaceOnUse" x="2" y="1" width="17" height="18">
<path d="M9.63351 2.17473C9.89387 1.91442 10.3156 1.9144 10.5759 2.17473L12.7846 4.38258C13.0449 4.64292 13.0449 5.06543 12.7846 5.32578C12.5242 5.58612 12.1017 5.58612 11.8414 5.32578L10.7712 4.25563V9.33375H15.8493L14.7792 8.26279C14.519 8.00243 14.5189 7.5807 14.7792 7.32041C15.0395 7.06015 15.4612 7.06023 15.7216 7.32041L17.9302 9.52906C18.0551 9.65407 18.1255 9.82353 18.1255 10.0003C18.1255 10.177 18.0552 10.3465 17.9302 10.4714L15.7216 12.6801C15.4613 12.9401 15.0395 12.9402 14.7792 12.6801C14.5188 12.4198 14.5188 11.9973 14.7792 11.7369L15.8493 10.6668H10.7712V15.7449L11.8414 14.6747C12.1017 14.4144 12.5242 14.4144 12.7846 14.6747C13.0447 14.935 13.0446 15.3568 12.7846 15.6171L10.5759 17.8258C10.4509 17.9507 10.2814 18.0211 10.1047 18.0211C9.92798 18.0211 9.75852 17.9507 9.63351 17.8258L7.42486 15.6171C7.16471 15.3568 7.16468 14.935 7.42486 14.6747C7.6852 14.4144 8.1077 14.4144 8.36805 14.6747L9.4382 15.7449V10.6668H4.36008L5.43023 11.7369C5.69057 11.9973 5.69057 12.4198 5.43023 12.6801C5.16987 12.9403 4.74734 12.9404 4.48703 12.6801L2.27919 10.4714C2.01888 10.2111 2.01896 9.78942 2.27919 9.52906L4.48703 7.32041C4.74738 7.06006 5.16988 7.06006 5.43023 7.32041C5.69049 7.58069 5.69037 8.00243 5.43023 8.26279L4.36008 9.33375H9.4382V4.25563L8.36805 5.32578C8.10771 5.58612 7.68521 5.58611 7.42486 5.32578C7.16451 5.06543 7.16451 4.64293 7.42486 4.38258L9.63351 2.17473Z" fill="black"/>
</mask>
<g mask="url(#mask0_14912_33871)">
<rect width="20" height="20" fill="#141414"/>
</g>
</svg>
