<svg width="16" height="16" viewBox="0 0 16 16" fill="none" xmlns="http://www.w3.org/2000/svg">
<mask id="mask0_14912_33757" style="mask-type:alpha" maskUnits="userSpaceOnUse" x="1" y="2" width="14" height="12">
<path d="M6.5652 2.81079C6.87677 2.49754 7.38332 2.49617 7.69658 2.80773C8.00984 3.1193 8.01121 3.62585 7.69964 3.93911L4.45641 7.19995H13.4658C13.9076 7.19995 14.2657 7.55813 14.2658 7.99995C14.2658 8.44178 13.9076 8.79995 13.4658 8.79995H4.45641L7.69964 12.0608C8.01121 12.3741 8.00984 12.8806 7.69658 13.1922C7.38332 13.5037 6.87677 13.5024 6.5652 13.1891L1.9652 8.56411C1.65968 8.25692 1.6549 7.76357 1.95088 7.45057L1.9652 7.43579L6.5652 2.81079Z" fill="black"/>
</mask>
<g mask="url(#mask0_14912_33757)">
<rect width="16" height="16" fill="white"/>
</g>
</svg>
