<svg width="16" height="16" viewBox="0 0 16 16" fill="none" xmlns="http://www.w3.org/2000/svg">
<mask id="mask0_14912_33749" style="mask-type:alpha" maskUnits="userSpaceOnUse" x="2" y="2" width="12" height="12">
<path d="M8.00794 2C8.3025 2 8.54128 2.23878 8.54128 2.53333V12.184L12.2568 8.48851C12.4657 8.2808 12.8034 8.28173 13.0111 8.49056C13.2188 8.6994 13.2179 9.03711 13.0091 9.24482L8.38405 13.8448L8.37419 13.8544C8.16552 14.0517 7.83662 14.0485 7.63184 13.8448L3.00684 9.24482C2.798 9.03711 2.79708 8.6994 3.00479 8.49056C3.2125 8.28172 3.55021 8.28081 3.75905 8.48851L7.47461 12.184V2.53333C7.47461 2.23879 7.7134 2.00001 8.00794 2Z" fill="black"/>
</mask>
<g mask="url(#mask0_14912_33749)">
<rect width="16" height="16" fill="white"/>
</g>
</svg>
