<svg width="24" height="24" viewBox="0 0 24 24" fill="none" xmlns="http://www.w3.org/2000/svg">
<mask id="mask0_15179_125359" style="mask-type:alpha" maskUnits="userSpaceOnUse" x="3" y="3" width="18" height="18">
<path d="M3.99922 13.2C4.44105 13.2 4.79922 13.5581 4.79922 14V19.2H9.99922C10.441 19.2 10.7992 19.5581 10.7992 20C10.7992 20.4418 10.441 20.8 9.99922 20.8H3.99922C3.55739 20.8 3.19922 20.4418 3.19922 20V14C3.19922 13.5581 3.55739 13.2 3.99922 13.2Z" fill="black"/>
<path d="M19.9992 3.19995C20.441 3.19995 20.7992 3.55812 20.7992 3.99995V9.99995C20.7992 10.4418 20.441 10.8 19.9992 10.8C19.5574 10.8 19.1992 10.4418 19.1992 9.99995V4.79995H13.9992C13.5574 4.79995 13.1992 4.44178 13.1992 3.99995C13.1992 3.55812 13.5574 3.19995 13.9992 3.19995H19.9992Z" fill="black"/>
</mask>
<g mask="url(#mask0_15179_125359)">
<rect width="24" height="24" fill="white"/>
</g>
</svg>
