<svg width="16" height="16" viewBox="0 0 16 16" fill="none" xmlns="http://www.w3.org/2000/svg">
<mask id="mask0_14912_33753" style="mask-type:alpha" maskUnits="userSpaceOnUse" x="1" y="2" width="14" height="12">
<path d="M8.30159 2.80773C8.61486 2.49617 9.1214 2.49754 9.43297 2.81079L14.033 7.43579L14.0473 7.45057C14.3433 7.76357 14.3385 8.25692 14.033 8.56411L9.43297 13.1891C9.1214 13.5024 8.61486 13.5037 8.30159 13.1922C7.98834 12.8806 7.98697 12.3741 8.29853 12.0608L11.5418 8.79995H2.53242C2.09059 8.79995 1.73242 8.44178 1.73242 7.99995C1.73243 7.55813 2.0906 7.19995 2.53242 7.19995H11.5418L8.29853 3.93911C7.98697 3.62585 7.98833 3.1193 8.30159 2.80773Z" fill="black"/>
</mask>
<g mask="url(#mask0_14912_33753)">
<rect width="16" height="16" fill="white"/>
</g>
</svg>
