<svg width="16" height="16" viewBox="0 0 16 16" fill="none" xmlns="http://www.w3.org/2000/svg">
<mask id="mask0_14912_33745" style="mask-type:alpha" maskUnits="userSpaceOnUse" x="2" y="1" width="12" height="14">
<path d="M7.44482 1.96618C7.75201 1.66065 8.24536 1.65588 8.55837 1.95185L8.57314 1.96618L13.1981 6.56618C13.5114 6.87775 13.5128 7.38429 13.2012 7.69756C12.8896 8.01082 12.3831 8.01219 12.0698 7.70062L8.80898 4.45739V13.4667C8.80898 13.9086 8.45081 14.2667 8.00898 14.2667C7.56716 14.2667 7.20899 13.9086 7.20898 13.4667V4.45739L3.94814 7.70062C3.63488 8.01218 3.12834 8.01082 2.81676 7.69756C2.5052 7.38429 2.50657 6.87775 2.81982 6.56618L7.44482 1.96618Z" fill="black"/>
</mask>
<g mask="url(#mask0_14912_33745)">
<rect width="16" height="16" fill="white"/>
</g>
</svg>
