<svg width="20" height="20" viewBox="0 0 20 20" fill="none" xmlns="http://www.w3.org/2000/svg">
<mask id="mask0_15112_101825" style="mask-type:alpha" maskUnits="userSpaceOnUse" x="2" y="2" width="16" height="15">
<path d="M5.64292 2.27864C5.90327 2.01829 6.3254 2.01829 6.58575 2.27864C6.84607 2.53899 6.84609 2.96109 6.58575 3.22143L4.39931 5.40787L12.1674 5.4167C15.2967 5.41713 17.8333 7.95402 17.8333 11.0834C17.8333 14.2129 15.2962 16.75 12.1666 16.75H10.375C10.0068 16.75 9.70834 16.4515 9.70831 16.0834C9.70831 15.7152 10.0068 15.4167 10.375 15.4167H12.1666C14.5599 15.4167 16.5 13.4766 16.5 11.0834C16.5 8.69014 14.5599 6.75004 12.1666 6.75003H12.1659L4.40297 6.7412L6.58575 8.92402C6.84608 9.18437 6.84609 9.60651 6.58575 9.86685C6.32541 10.1272 5.90327 10.1272 5.64292 9.86685L2.32025 6.54414C2.05991 6.2838 2.05992 5.86166 2.32025 5.60131L5.64292 2.27864Z" fill="black"/>
</mask>
<g mask="url(#mask0_15112_101825)">
<rect width="20" height="20" fill="#757575"/>
</g>
</svg>
