<svg width="24" height="24" viewBox="0 0 24 24" fill="none" xmlns="http://www.w3.org/2000/svg">
<g clip-path="url(#clip0_15179_125367)">
<mask id="mask0_15179_125367" style="mask-type:alpha" maskUnits="userSpaceOnUse" x="2" y="2" width="20" height="20">
<path d="M7.99922 14.7C8.49628 14.7 8.89922 15.1029 8.89922 15.6C8.89922 16.097 8.49628 16.5 7.99922 16.5C7.50216 16.5 7.09922 16.097 7.09922 15.6C7.09922 15.1029 7.50216 14.7 7.99922 14.7Z" fill="black"/>
<path d="M16.2492 14.8C16.691 14.8 17.0492 15.1581 17.0492 15.6C17.0492 16.0418 16.691 16.4 16.2492 16.4H11.3492C10.9074 16.4 10.5492 16.0418 10.5492 15.6C10.5492 15.1581 10.9074 14.8 11.3492 14.8H16.2492Z" fill="black"/>
<path d="M7.99922 11.1C8.49628 11.1 8.89922 11.5029 8.89922 12C8.89922 12.497 8.49628 12.9 7.99922 12.9C7.50216 12.9 7.09922 12.497 7.09922 12C7.09922 11.5029 7.50216 11.1 7.99922 11.1Z" fill="black"/>
<path d="M16.2492 11.2C16.691 11.2 17.0492 11.5581 17.0492 12C17.0492 12.4418 16.691 12.8 16.2492 12.8H11.3492C10.9074 12.8 10.5492 12.4418 10.5492 12C10.5492 11.5581 10.9074 11.2 11.3492 11.2H16.2492Z" fill="black"/>
<path d="M7.99922 7.49995C8.49628 7.49995 8.89922 7.9029 8.89922 8.39995C8.89922 8.89701 8.49628 9.29995 7.99922 9.29995C7.50216 9.29995 7.09922 8.89701 7.09922 8.39995C7.09922 7.9029 7.50216 7.49995 7.99922 7.49995Z" fill="black"/>
<path d="M16.2492 7.59995C16.691 7.59995 17.0492 7.95812 17.0492 8.39995C17.0492 8.84178 16.691 9.19995 16.2492 9.19995H11.3492C10.9074 9.19995 10.5492 8.84178 10.5492 8.39995C10.5492 7.95812 10.9074 7.59995 11.3492 7.59995H16.2492Z" fill="black"/>
<path fill-rule="evenodd" clip-rule="evenodd" d="M16.1242 2.94995C17.6443 2.94995 18.924 3.29689 19.8131 4.18599C20.7022 5.07508 21.0492 6.35482 21.0492 7.87495V16.125C21.0492 17.6451 20.7022 18.9248 19.8131 19.8139C18.924 20.703 17.6443 21.05 16.1242 21.05H7.87422C6.35415 21.05 5.07441 20.703 4.1853 19.8139C3.29619 18.9248 2.94922 17.6451 2.94922 16.125V7.87495C2.94922 6.35482 3.29619 5.07508 4.1853 4.18599C5.07441 3.29689 6.35415 2.94995 7.87422 2.94995H16.1242ZM7.87422 4.54995C6.56572 4.54995 5.78295 4.85115 5.3167 5.31738C4.85046 5.78362 4.54922 6.5664 4.54922 7.87495V16.125C4.54922 17.4335 4.85046 18.2163 5.3167 18.6825C5.78295 19.1488 6.56572 19.45 7.87422 19.45H16.1242C17.4327 19.45 18.2155 19.1488 18.6817 18.6825C19.148 18.2163 19.4492 17.4335 19.4492 16.125V7.87495C19.4492 6.5664 19.148 5.78362 18.6817 5.31738C18.2155 4.85115 17.4327 4.54995 16.1242 4.54995H7.87422Z" fill="black"/>
</mask>
<g mask="url(#mask0_15179_125367)">
<rect width="24" height="24" fill="white"/>
</g>
</g>
<defs>
<clipPath id="clip0_15179_125367">
<rect width="24" height="24" fill="white"/>
</clipPath>
</defs>
</svg>
