<svg width="24" height="24" viewBox="0 0 24 24" fill="none" xmlns="http://www.w3.org/2000/svg">
<mask id="mask0_15179_125375" style="mask-type:alpha" maskUnits="userSpaceOnUse" x="3" y="4" width="18" height="16">
<path d="M19.5496 17.65C19.9914 17.65 20.3496 18.0082 20.3496 18.45C20.3496 18.8918 19.9914 19.25 19.5496 19.25H4.39961C3.95778 19.25 3.59961 18.8918 3.59961 18.45C3.59961 18.0082 3.95778 17.65 4.39961 17.65H19.5496Z" fill="black"/>
<path d="M19.5496 11.2C19.9914 11.2 20.3496 11.5582 20.3496 12C20.3496 12.4418 19.9914 12.8 19.5496 12.8H4.39961C3.95778 12.8 3.59961 12.4418 3.59961 12C3.59961 11.5582 3.95778 11.2 4.39961 11.2H19.5496Z" fill="black"/>
<path d="M19.5496 4.75C19.9914 4.75 20.3496 5.10817 20.3496 5.55C20.3496 5.99183 19.9914 6.35 19.5496 6.35H4.39961C3.95778 6.35 3.59961 5.99183 3.59961 5.55C3.59961 5.10817 3.95778 4.75 4.39961 4.75H19.5496Z" fill="black"/>
</mask>
<g mask="url(#mask0_15179_125375)">
<rect width="24" height="24" fill="white"/>
</g>
</svg>
