<svg width="16" height="16" viewBox="0 0 16 16" fill="none" xmlns="http://www.w3.org/2000/svg">
<mask id="mask0_15162_104027" style="mask-type:alpha" maskUnits="userSpaceOnUse" x="2" y="1" width="12" height="14">
<path d="M7.56172 2.0843C7.80491 1.84243 8.19547 1.83866 8.44326 2.07297L8.45495 2.0843L13.0799 6.6843C13.3279 6.93096 13.329 7.33197 13.0824 7.57997C12.8357 7.82797 12.4347 7.82907 12.1867 7.58241L8.64167 4.0565V13.4667C8.64167 13.8165 8.35811 14.1 8.00833 14.1C7.65855 14.1 7.375 13.8165 7.375 13.4667V4.0565L3.82995 7.58241C3.58195 7.82907 3.18094 7.82797 2.93428 7.57997C2.68762 7.33197 2.68872 6.93096 2.93672 6.6843L7.56172 2.0843Z" fill="black"/>
</mask>
<g mask="url(#mask0_15162_104027)">
<rect width="16" height="16" fill="white"/>
</g>
</svg>
