<svg width="24" height="24" viewBox="0 0 24 24" fill="none" xmlns="http://www.w3.org/2000/svg">
<mask id="mask0_15179_125351" style="mask-type:alpha" maskUnits="userSpaceOnUse" x="3" y="2" width="19" height="21">
<path fill-rule="evenodd" clip-rule="evenodd" d="M11.3262 2.59584C11.8831 2.2744 12.5691 2.27434 13.126 2.59584L20.126 6.63686C20.6829 6.95839 21.0264 7.55335 21.0264 8.19643V16.2794C21.0262 16.9223 20.6827 17.5166 20.126 17.838L13.126 21.879C12.5691 22.2006 11.8831 22.2006 11.3262 21.879L4.32617 17.838C3.7694 17.5166 3.42595 16.9223 3.42578 16.2794V8.19643C3.42579 7.55336 3.76926 6.95839 4.32617 6.63686L11.3262 2.59584ZM5.02637 16.2794C5.02654 16.3507 5.06424 16.4166 5.12598 16.4523L11.4287 20.091L11.4443 12.7121L5.02637 9.00502V16.2794ZM13.0439 12.713L13.0293 20.088L19.3262 16.4523C19.3878 16.4166 19.4256 16.3506 19.4258 16.2794V9.02846L13.0439 12.713ZM12.3262 3.98158C12.2643 3.94586 12.1879 3.94586 12.126 3.98158L5.82617 7.61928L12.2451 11.3263L18.6465 7.631L12.3262 3.98158Z" fill="black"/>
</mask>
<g mask="url(#mask0_15179_125351)">
<rect width="24" height="24" fill="white"/>
</g>
</svg>
