<svg width="14" height="14" viewBox="0 0 14 14" fill="none" xmlns="http://www.w3.org/2000/svg">
<mask id="mask0_15216_127355" style="mask-type:alpha" maskUnits="userSpaceOnUse" x="2" y="2" width="10" height="10">
<path d="M10.7752 2.31708C11.0258 2.0665 11.432 2.06651 11.6826 2.31708C11.9332 2.56767 11.9332 2.97394 11.6826 3.22453L7.90716 6.99996L11.6826 10.7754C11.9332 11.026 11.9332 11.4323 11.6826 11.6829C11.432 11.9334 11.0258 11.9334 10.7752 11.6829L6.99971 7.9074L3.22428 11.6829C2.97369 11.9334 2.56742 11.9334 2.31684 11.6829C2.06627 11.4323 2.06627 11.026 2.31684 10.7754L6.09227 6.99996L2.31684 3.22453C2.06627 2.97394 2.06626 2.56767 2.31684 2.31708C2.56742 2.0665 2.97369 2.06651 3.22428 2.31708L6.99971 6.09251L10.7752 2.31708Z" fill="black"/>
</mask>
<g mask="url(#mask0_15216_127355)">
<rect width="14" height="14" fill="white" fill-opacity="0.4"/>
</g>
</svg>
