<svg width="20" height="20" viewBox="0 0 20 20" fill="none" xmlns="http://www.w3.org/2000/svg">
<mask id="mask0_15112_101827" style="mask-type:alpha" maskUnits="userSpaceOnUse" x="2" y="2" width="16" height="15">
<path d="M13.3726 2.27864C13.6329 2.01829 14.055 2.01829 14.3154 2.27864L17.6381 5.60131C17.8984 5.86166 17.8984 6.2838 17.6381 6.54414L14.3154 9.86685C14.055 10.1272 13.6329 10.1272 13.3726 9.86685C13.1122 9.60651 13.1122 9.18437 13.3726 8.92402L15.5553 6.7412L7.79244 6.75003H7.79167C5.39843 6.75003 3.45833 8.69013 3.45833 11.0834C3.45836 13.4766 5.39845 15.4167 7.79167 15.4167H9.58333C9.95152 15.4167 10.25 15.7152 10.25 16.0834C10.25 16.4515 9.95151 16.75 9.58333 16.75H7.79167C4.66207 16.75 2.12503 14.213 2.125 11.0834C2.125 7.95401 4.66164 5.41712 7.79089 5.4167L15.559 5.40787L13.3726 3.22143C13.1122 2.96109 13.1122 2.53899 13.3726 2.27864Z" fill="black"/>
</mask>
<g mask="url(#mask0_15112_101827)">
<rect width="20" height="20" fill="#757575"/>
</g>
</svg>
