<svg width="40" height="42" viewBox="0 0 40 42" fill="none" xmlns="http://www.w3.org/2000/svg">
<g clip-path="url(#clip0_15162_103971)">
<mask id="mask0_15162_103971" style="mask-type:alpha" maskUnits="userSpaceOnUse" x="10" y="2" width="20" height="20">
<path d="M15.9992 14.7C16.4963 14.7 16.8992 15.1029 16.8992 15.6C16.8992 16.097 16.4963 16.5 15.9992 16.5C15.5022 16.5 15.0992 16.097 15.0992 15.6C15.0992 15.1029 15.5022 14.7 15.9992 14.7Z" fill="black"/>
<path d="M24.2492 14.8C24.691 14.8 25.0492 15.1581 25.0492 15.6C25.0492 16.0418 24.691 16.4 24.2492 16.4H19.3492C18.9074 16.4 18.5492 16.0418 18.5492 15.6C18.5492 15.1581 18.9074 14.8 19.3492 14.8H24.2492Z" fill="black"/>
<path d="M15.9992 11.1C16.4963 11.1 16.8992 11.5029 16.8992 12C16.8992 12.497 16.4963 12.9 15.9992 12.9C15.5022 12.9 15.0992 12.497 15.0992 12C15.0992 11.5029 15.5022 11.1 15.9992 11.1Z" fill="black"/>
<path d="M24.2492 11.2C24.691 11.2 25.0492 11.5581 25.0492 12C25.0492 12.4418 24.691 12.8 24.2492 12.8H19.3492C18.9074 12.8 18.5492 12.4418 18.5492 12C18.5492 11.5581 18.9074 11.2 19.3492 11.2H24.2492Z" fill="black"/>
<path d="M15.9992 7.49995C16.4963 7.49995 16.8992 7.9029 16.8992 8.39995C16.8992 8.89701 16.4963 9.29995 15.9992 9.29995C15.5022 9.29995 15.0992 8.89701 15.0992 8.39995C15.0992 7.9029 15.5022 7.49995 15.9992 7.49995Z" fill="black"/>
<path d="M24.2492 7.59995C24.691 7.59995 25.0492 7.95812 25.0492 8.39995C25.0492 8.84178 24.691 9.19995 24.2492 9.19995H19.3492C18.9074 9.19995 18.5492 8.84178 18.5492 8.39995C18.5492 7.95812 18.9074 7.59995 19.3492 7.59995H24.2492Z" fill="black"/>
<path fill-rule="evenodd" clip-rule="evenodd" d="M24.1242 2.94995C25.6443 2.94995 26.924 3.29689 27.8131 4.18599C28.7022 5.07508 29.0492 6.35482 29.0492 7.87495V16.125C29.0492 17.6451 28.7022 18.9248 27.8131 19.8139C26.924 20.703 25.6443 21.05 24.1242 21.05H15.8742C14.3542 21.05 13.0744 20.703 12.1853 19.8139C11.2962 18.9248 10.9492 17.6451 10.9492 16.125V7.87495C10.9492 6.35482 11.2962 5.07508 12.1853 4.18599C13.0744 3.29689 14.3542 2.94995 15.8742 2.94995H24.1242ZM15.8742 4.54995C14.5657 4.54995 13.7829 4.85115 13.3167 5.31738C12.8505 5.78362 12.5492 6.5664 12.5492 7.87495V16.125C12.5492 17.4335 12.8505 18.2163 13.3167 18.6825C13.7829 19.1488 14.5657 19.45 15.8742 19.45H24.1242C25.4327 19.45 26.2155 19.1488 26.6817 18.6825C27.148 18.2163 27.4492 17.4335 27.4492 16.125V7.87495C27.4492 6.5664 27.148 5.78362 26.6817 5.31738C26.2155 4.85115 25.4327 4.54995 24.1242 4.54995H15.8742Z" fill="black"/>
</mask>
<g mask="url(#mask0_15162_103971)">
<rect x="8" width="24" height="24" fill="white"/>
</g>
</g>
<path d="M8.67852 35.0352C10.8465 35.0352 12.159 35.7617 12.159 37.0039C12.159 38.2578 10.8465 38.9844 8.67852 38.9961C6.48711 38.9844 5.15117 38.2578 5.15117 37.0039C5.15117 35.7617 6.48711 35.0352 8.67852 35.0352ZM8.67852 35.9141C7.15508 35.9141 6.25274 36.3008 6.26445 37.0039C6.25274 37.707 7.15508 38.1055 8.67852 38.1055C10.1902 38.1055 11.0691 37.707 11.0691 37.0039C11.0691 36.3008 10.1902 35.9141 8.67852 35.9141ZM12.0652 28.4961V31.0625H13.5887V32.0117H12.0652V34.7656H10.952V28.4961H12.0652ZM5.31524 29.1523V30.6641H8.06914V29.1523H9.1707V34.0273H4.22539V29.1523H5.31524ZM5.31524 33.1367H8.06914V31.543H5.31524V33.1367ZM24.8715 28.9297V32.5273H21.848V33.7461H26.0902V34.6484H16.516V33.7461H20.7465V32.5273H17.7348V28.9297H24.8715ZM18.8246 29.8086V31.6367H23.7699V29.8086H18.8246ZM24.9184 35.6445V38.9961H23.7934V36.5234H17.5824V35.6445H24.9184ZM36.1848 34.2266V35.1289H26.5754V34.2266H30.8293V33.2305H27.8059V30.5586H33.8645V29.6211H27.7824V28.7422H34.9777V31.3789H28.9074V32.3633H35.1887V33.2305H31.9309V34.2266H36.1848ZM35.0363 35.8672V38.9141H33.9113V36.7578H27.6535V35.8672H35.0363Z" fill="#8C8C8C"/>
<defs>
<clipPath id="clip0_15162_103971">
<rect width="24" height="24" fill="white" transform="translate(8)"/>
</clipPath>
</defs>
</svg>
