<svg width="40" height="42" viewBox="0 0 40 42" fill="none" xmlns="http://www.w3.org/2000/svg">
<mask id="mask0_15162_103955" style="mask-type:alpha" maskUnits="userSpaceOnUse" x="11" y="2" width="19" height="21">
<path fill-rule="evenodd" clip-rule="evenodd" d="M19.3262 2.59584C19.8831 2.2744 20.5691 2.27434 21.126 2.59584L28.126 6.63686C28.6829 6.95839 29.0264 7.55335 29.0264 8.19643V16.2794C29.0262 16.9223 28.6827 17.5166 28.126 17.838L21.126 21.879C20.5691 22.2006 19.8831 22.2006 19.3262 21.879L12.3262 17.838C11.7694 17.5166 11.426 16.9223 11.4258 16.2794V8.19643C11.4258 7.55336 11.7693 6.95839 12.3262 6.63686L19.3262 2.59584ZM13.0264 16.2794C13.0265 16.3507 13.0642 16.4166 13.126 16.4523L19.4287 20.091L19.4443 12.7121L13.0264 9.00502V16.2794ZM21.0439 12.713L21.0293 20.088L27.3262 16.4523C27.3878 16.4166 27.4256 16.3506 27.4258 16.2794V9.02846L21.0439 12.713ZM20.3262 3.98158C20.2643 3.94586 20.1879 3.94586 20.126 3.98158L13.8262 7.61928L20.2451 11.3263L26.6465 7.631L20.3262 3.98158Z" fill="black"/>
</mask>
<g mask="url(#mask0_15162_103955)">
<rect x="8" width="24" height="24" fill="white"/>
</g>
<path d="M13.4129 34.5664V35.4805H11.0574V38.9961H9.94414V35.4805H7.28399V38.9961H6.14727V35.4805H3.80352V34.5664H13.4129ZM6.10039 28.9062V30.2422H11.0926V28.9062H12.2059V33.4062H4.99883V28.9062H6.10039ZM6.10039 32.5156H11.0926V31.1211H6.10039V32.5156ZM25.2699 28.5078V36.2656H24.1566V33.5352H21.8598V34.5195H17.0199V29.1992H18.1332V30.9805H20.7582V29.1992H21.8598V30.3711H24.1566V28.5078H25.2699ZM25.5043 37.8711V38.7734H18.4145V35.5039H19.5395V37.8711H25.5043ZM18.1332 33.6172H20.7582V31.8359H18.1332V33.6172ZM21.8598 32.6328H24.1566V31.2852H21.8598V32.6328ZM35.341 28.5078V34.7188H34.2277V33.4414H31.5793V32.5273H34.2277V31.25H31.6848C31.0109 32.9375 29.4348 34.127 27.1613 34.7773L26.716 33.9102C29.2004 33.1953 30.6535 31.8652 30.8527 30.1719H27.2551V29.2578H32.0598C32.0598 29.6445 32.0188 30.0195 31.9543 30.3711H34.2277V28.5078H35.341ZM31.884 34.8359C34.0051 34.8359 35.3996 35.6094 35.4113 36.8867C35.3996 38.1641 34.0051 38.9492 31.884 38.9492C29.7277 38.9492 28.3449 38.1641 28.3449 36.8867C28.3449 35.6094 29.7277 34.8359 31.884 34.8359ZM31.884 35.7148C30.384 35.7148 29.4465 36.1367 29.4465 36.8867C29.4465 37.625 30.384 38.0586 31.884 38.0586C33.3605 38.0586 34.2863 37.625 34.298 36.8867C34.2863 36.1367 33.3605 35.7148 31.884 35.7148Z" fill="#8C8C8C"/>
</svg>
