<svg width="40" height="42" viewBox="0 0 40 42" fill="none" xmlns="http://www.w3.org/2000/svg">
<mask id="mask0_15162_103979" style="mask-type:alpha" maskUnits="userSpaceOnUse" x="11" y="4" width="18" height="16">
<path d="M27.5496 17.65C27.9914 17.65 28.3496 18.0082 28.3496 18.45C28.3496 18.8918 27.9914 19.25 27.5496 19.25H12.3996C11.9578 19.25 11.5996 18.8918 11.5996 18.45C11.5996 18.0082 11.9578 17.65 12.3996 17.65H27.5496Z" fill="black"/>
<path d="M27.5496 11.2C27.9914 11.2 28.3496 11.5582 28.3496 12C28.3496 12.4418 27.9914 12.8 27.5496 12.8H12.3996C11.9578 12.8 11.5996 12.4418 11.5996 12C11.5996 11.5582 11.9578 11.2 12.3996 11.2H27.5496Z" fill="black"/>
<path d="M27.5496 4.75C27.9914 4.75 28.3496 5.10817 28.3496 5.55C28.3496 5.99183 27.9914 6.35 27.5496 6.35H12.3996C11.9578 6.35 11.5996 5.99183 11.5996 5.55C11.5996 5.10817 11.9578 4.75 12.3996 4.75H27.5496Z" fill="black"/>
</mask>
<g mask="url(#mask0_15162_103979)">
<rect x="8" width="24" height="24" fill="white"/>
</g>
<path d="M14.5953 29.6797V32.4102H16.0016V28.6953H17.068V38.4805H16.0016V33.3242H14.5953V36.2305H10.5172V29.6797H14.5953ZM11.5719 30.5586V35.3398H13.5523V30.5586H11.5719ZM19.2008 28.4961V38.9961H18.1344V28.4961H19.2008ZM28.7094 31.9648V32.8672H21.432V29.0117H22.557V31.9648H28.7094ZM29.8109 34.2852V35.1875H27.4203V38.9961H26.2953V35.1875H23.7523V38.9961H22.6391V35.1875H20.2367V34.2852H29.8109Z" fill="#8C8C8C"/>
</svg>
