<svg width="40" height="42" viewBox="0 0 40 42" fill="none" xmlns="http://www.w3.org/2000/svg">
<mask id="mask0_15162_103963" style="mask-type:alpha" maskUnits="userSpaceOnUse" x="11" y="3" width="18" height="18">
<path d="M11.9992 13.2C12.441 13.2 12.7992 13.5581 12.7992 14V19.2H17.9992C18.441 19.2 18.7992 19.5581 18.7992 20C18.7992 20.4418 18.441 20.8 17.9992 20.8H11.9992C11.5574 20.8 11.1992 20.4418 11.1992 20V14C11.1992 13.5581 11.5574 13.2 11.9992 13.2Z" fill="black"/>
<path d="M27.9992 3.19995C28.441 3.19995 28.7992 3.55812 28.7992 3.99995V9.99995C28.7992 10.4418 28.441 10.8 27.9992 10.8C27.5574 10.8 27.1992 10.4418 27.1992 9.99995V4.79995H21.9992C21.5574 4.79995 21.1992 4.44178 21.1992 3.99995C21.1992 3.55812 21.5574 3.19995 21.9992 3.19995H27.9992Z" fill="black"/>
</mask>
<g mask="url(#mask0_15162_103963)">
<rect x="8" width="24" height="24" fill="white"/>
</g>
<path d="M14.8531 29.1406C14.8531 31.6953 13.6227 33.5586 10.7633 34.6602L10.2477 33.8398C11.607 33.3418 12.5328 32.668 13.0953 31.8359L10.4 32.1289L10.2359 31.2148L13.5289 31.0039C13.6285 30.7051 13.6988 30.3887 13.7398 30.0547H10.7164V29.1406H14.8531ZM19.1187 28.5078V34.332H18.0641V31.9062H16.7984V34.2383H15.7437V28.6953H16.7984V31.0039H18.0641V28.5078H19.1187ZM13.2242 34.7656V35.8789H18.0289V34.7656H19.1187V38.8672H12.1109V34.7656H13.2242ZM13.2242 37.9766H18.0289V36.7695H13.2242V37.9766ZM29.0023 28.4961V39.0195H27.8891V33.5586H25.7211V32.6562H27.8891V28.4961H29.0023ZM23.9633 31.8711C23.9633 33.5352 25.0297 35.2344 26.6469 35.9492L26.0258 36.8047C24.8246 36.2715 23.8988 35.1758 23.4359 33.8516C22.973 35.252 22.0531 36.4238 20.8461 36.9805L20.2367 36.125C21.8305 35.3984 22.8617 33.6055 22.8617 31.8711V31.1797H20.5297V30.2891H22.8734V28.707H23.9867V30.2891H26.2602V31.1797H23.9633V31.8711Z" fill="#8C8C8C"/>
</svg>
